<?xml version="1.0" encoding="UTF-8" standalone="no"?>
<svg width="841px" height="841px" viewBox="0 0 841 841" version="1.1" xmlns="http://www.w3.org/2000/svg" xmlns:xlink="http://www.w3.org/1999/xlink" xmlns:sketch="http://www.bohemiancoding.com/sketch/ns">
    <!-- Generator: Sketch 3.3.3 (12072) - http://www.bohemiancoding.com/sketch -->
    <title>Oval 1 + Streetlite</title>
    <desc>Created with Sketch.</desc>
    <defs></defs>
    <g id="Page-1" stroke="none" stroke-width="1" fill="none" fill-rule="evenodd" sketch:type="MSPage">
        <g id="Oval-1-+-Streetlite" sketch:type="MSLayerGroup" transform="translate(1.000000, 1.000000)">
            <circle id="Oval-1" stroke="#979797" opacity="0.456856343" fill-opacity="0.720000029" fill="#D8D8D8" sketch:type="MSShapeGroup" cx="419.5" cy="419.5" r="419.5"></circle>
            <g id="Streetlite" fill="#000000" sketch:type="MSShapeGroup">
                <path d="M390.641635,1.00766436 C479.460772,-5.23489517 570.077766,17.6628132 644.96351,65.9302834 C718.42595,112.824391 776.681516,183.165551 808.693361,264.268885 C844.001278,352.613587 847.596992,453.093825 819.10595,543.83567 C795.434165,619.944956 749.264194,688.787902 688.112081,739.852039 C624.537855,793.288349 544.708004,827.172962 462.006575,835.238349 C373.112528,844.527277 281.421813,824.351325 204.813123,778.281236 C131.250801,734.383557 71.6967836,667.463319 36.9382122,589.156652 C-4.16279971,497.69067 -10.4053592,391.292486 19.2093431,295.531623 C42.8811289,218.123885 89.8251765,148.107337 152.150891,96.4938548 C218.996218,40.6604025 303.720236,6.75081912 390.641635,1.00766436 Z M390.591694,40.9850155 C296.403956,47.6270989 205.712051,91.5996882 141.763272,161.01695 C86.7038967,219.971682 51.3210693,297.004867 42.8811289,377.259212 C32.8181229,466.752545 55.8656527,559.51698 107.279373,633.503795 C155.796546,704.144599 228.859462,757.580908 311.086456,781.85198 C399.830682,808.345402 498.338272,801.178944 581.913659,761.076742 C660.145415,724.14576 724.843301,659.447873 761.774284,581.241087 C801.651754,498.140135 809.017974,400.306742 783.048926,311.962039 C759.676784,231.408051 708.337974,159.468795 640.119284,110.726891 C568.604522,58.963587 478.561843,34.0682596 390.591694,40.9850155 Z" id="Path-Copy-27"></path>
                <path d="M257.600206,191.955075 C277.076992,175.774361 304.843897,173.976504 328.590593,179.91942 C345.595325,184.08945 359.353926,196.100135 369.1922,210.208319 C359.004343,217.299867 348.766546,224.316504 338.428867,231.183319 C332.011516,223.89201 325.06979,216.226146 315.431278,213.47942 C306.766605,211.157188 296.82845,211.107248 288.962825,215.826623 C277.451546,222.643498 276.602557,240.921712 286.515742,249.511474 C295.255325,257.52692 306.766605,261.372337 317.428897,266.166623 C336.231486,274.207039 356.082825,282.69692 369.391962,298.902605 C382.401456,314.509004 384.523926,336.932277 378.930593,355.959599 C373.062587,375.136742 355.458569,388.370968 336.60604,393.315075 C308.33973,400.781176 276.402796,398.05942 251.557409,381.903676 C238.847557,373.86326 229.034254,362.077307 221.792885,349.042843 C233.254224,342.650462 244.765504,336.332992 256.451575,330.390075 C264.192349,342.875194 274.704819,354.935819 289.537141,358.706325 C304.344492,362.40192 322.522825,362.202158 334.109016,350.8407 C343.647647,341.102307 340.251694,323.872843 329.040057,316.906146 C306.566843,301.674301 278.225623,296.730194 257.575236,278.47695 C232.530087,257.127396 232.005712,213.079896 257.600206,191.955075" id="Path-Copy-20"></path>
                <path d="M517.490444,189.28326 C532.947022,188.733914 548.428569,188.783855 563.885147,189.133438 C546.605742,230.783795 529.101605,272.384212 512.296635,314.234331 C491.321635,363.225938 470.571367,412.317426 449.621337,461.334004 C438.809224,486.329212 426.673688,510.825016 411.916278,533.747694 C440.382349,559.092486 469.397766,585.685789 505.404849,599.793974 C535.843569,611.430105 572.924373,608.633438 599.317915,588.707188 C618.919551,573.924807 629.23226,550.902248 639.095504,529.15317 C652.129968,532.723914 665.239343,536.119867 678.148956,540.214986 C667.886188,575.098408 647.610355,608.383736 616.197796,627.885492 C574.797141,653.604837 520.411962,654.104242 476.714046,633.803438 C442.804462,618.646504 414.762885,593.626325 387.869938,568.556206 C363.449046,599.544271 333.909254,628.909271 295.954492,642.34326 C256.027081,656.551325 206.710861,644.365849 181.565831,609.257694 C162.488569,583.088885 156.121159,547.056831 167.882141,516.5432 C184.212676,473.769182 231.231635,444.728795 276.9022,450.996325 C316.72973,456.140194 350.064998,481.035521 379.929403,506.180551 C403.676099,466.852426 419.257528,423.504093 437.186159,381.404271 C463.754492,317.2807 489.998212,253.007307 517.490444,189.28326 Z M239.022349,495.5682 C220.2697,502.90945 205.662111,520.76317 203.789343,541.014033 C202.41598,558.767873 207.210266,577.845135 219.995028,590.754748 C232.180504,603.065075 250.308897,607.73451 267.238718,606.411087 C284.118599,605.012754 299.749968,597.097188 313.134016,587.084123 C330.538272,573.949777 345.270712,557.494391 357.680921,539.64067 C338.72851,523.434986 319.451486,506.704926 296.079343,497.266176 C278.125742,489.924926 257.225653,488.002218 239.022349,495.5682 Z" id="Path-Copy-21"></path>
                <path d="M534.644998,379.681325 C550.026665,380.605224 570.652081,374.537456 581.064671,389.569539 C587.482022,398.658706 581.888688,409.395908 574.971932,416.237754 C579.516516,420.657486 585.484403,425.002307 585.958837,431.894093 C587.132438,442.206801 578.89226,451.770402 568.904165,453.468379 C557.567676,455.291206 546.006456,454.217486 534.620028,454.017724 C534.045712,429.247248 534.395296,404.476771 534.644998,379.681325 Z M549.027855,392.890581 C549.102766,398.908408 549.252587,404.926236 549.55223,410.969033 C555.445206,409.770462 564.459462,412.542158 567.505831,405.725283 C569.50345,401.705075 568.329849,395.687248 563.810236,393.989271 C558.916069,392.940521 553.922022,393.090343 549.027855,392.890581 Z M549.152706,422.929777 C549.102766,428.947605 549.102766,435.015373 549.202647,441.05817 C554.571248,440.833438 560.0647,441.133081 565.433301,439.98445 C570.602141,437.537367 572.225206,429.49695 567.33104,425.951176 C562.212141,421.980908 555.120593,423.579004 549.152706,422.929777 Z" id="Path-Copy-23"></path>
                <path d="M602.788778,379.781206 C607.583063,379.606414 612.402319,379.531504 617.271516,379.481563 C617.995653,389.369777 617.845831,399.282962 617.970682,409.196146 C626.310742,400.331712 633.926665,390.793081 642.516426,382.178349 C646.986099,377.209271 654.502141,380.455402 660.345176,380.030908 C652.3547,392.865611 641.193004,403.25323 631.32976,414.564748 C641.267915,427.923825 653.553272,439.510016 662.292855,453.743051 C656.574671,453.867902 650.556843,455.391087 645.088361,453.443408 C635.075296,443.455313 627.284581,431.494569 617.845831,420.982099 C617.845831,432.118825 618.020623,443.255551 617.471278,454.392277 C612.5022,454.292396 607.608034,454.192516 602.738837,454.017724 C602.589016,429.272218 602.464165,404.526712 602.788778,379.781206" id="Path-Copy-26"></path>
            </g>
        </g>
    </g>
</svg>