<?xml version="1.0" encoding="UTF-8" standalone="no"?>
<svg width="2075px" height="999px" viewBox="0 0 2075 999" version="1.1" xmlns="http://www.w3.org/2000/svg" xmlns:xlink="http://www.w3.org/1999/xlink" xmlns:sketch="http://www.bohemiancoding.com/sketch/ns">
    <!-- Generator: Sketch 3.3.3 (12072) - http://www.bohemiancoding.com/sketch -->
    <title>Street Lite Vector</title>
    <desc>Created with Sketch.</desc>
    <defs></defs>
    <g id="Page-1" stroke="none" stroke-width="1" fill="none" fill-rule="evenodd" sketch:type="MSPage">
        <path d="M1026.4429,0.403546154 C1062.0129,-2.09645385 1098.3029,7.07354615 1128.2929,26.4035462 C1157.7129,45.1835462 1181.0429,73.3535462 1193.8629,105.833546 C1208.0029,141.213546 1209.4429,181.453546 1198.0329,217.793546 C1188.5529,248.273546 1170.0629,275.843546 1145.5729,296.293546 C1120.1129,317.693546 1088.1429,331.263546 1055.0229,334.493546 C1019.4229,338.213546 982.702895,330.133546 952.022895,311.683546 C922.562895,294.103546 898.712895,267.303546 884.792895,235.943546 C868.332895,199.313546 865.832895,156.703546 877.692895,118.353546 C887.172895,87.3535462 905.972895,59.3135462 930.932895,38.6435462 C957.702895,16.2835462 991.632895,2.70354615 1026.4429,0.403546154 M1026.4229,16.4135462 C988.702895,19.0735462 952.382895,36.6835462 926.772895,64.4835462 C904.722895,88.0935462 890.552895,118.943546 887.172895,151.083546 C883.142895,186.923546 892.372895,224.073546 912.962895,253.703546 C932.392895,281.993546 961.652895,303.393546 994.582895,313.113546 C1030.1229,323.723546 1069.5729,320.853546 1103.0429,304.793546 C1134.3729,290.003546 1160.2829,264.093546 1175.0729,232.773546 C1191.0429,199.493546 1193.9929,160.313546 1183.5929,124.933546 C1174.2329,92.6735462 1153.6729,63.8635462 1126.3529,44.3435462 C1097.7129,23.6135462 1061.6529,13.6435462 1026.4229,16.4135462 M973.162895,76.8735462 C980.962895,70.3935462 992.082895,69.6735462 1001.5929,72.0535462 C1008.4029,73.7235462 1013.9129,78.5335462 1017.8529,84.1835462 C1013.7729,87.0235462 1009.6729,89.8335462 1005.5329,92.5835462 C1002.9629,89.6635462 1000.1829,86.5935462 996.322895,85.4935462 C992.852895,84.5635462 988.872895,84.5435462 985.722895,86.4335462 C981.112895,89.1635462 980.772895,96.4835462 984.742895,99.9235462 C988.242895,103.133546 992.852895,104.673546 997.122895,106.593546 C1004.6529,109.813546 1012.6029,113.213546 1017.9329,119.703546 C1023.1429,125.953546 1023.9929,134.933546 1021.7529,142.553546 C1019.4029,150.233546 1012.3529,155.533546 1004.8029,157.513546 C993.482895,160.503546 980.692895,159.413546 970.742895,152.943546 C965.652895,149.723546 961.722895,145.003546 958.822895,139.783546 C963.412895,137.223546 968.022895,134.693546 972.702895,132.313546 C975.802895,137.313546 980.012895,142.143546 985.952895,143.653546 C991.882895,145.133546 999.162895,145.053546 1003.8029,140.503546 C1007.6229,136.603546 1006.2629,129.703546 1001.7729,126.913546 C992.772895,120.813546 981.422895,118.833546 973.152895,111.523546 C963.122895,102.973546 962.912895,85.3335462 973.162895,76.8735462 M1077.2429,75.8035462 C1083.4329,75.5835462 1089.6329,75.6035462 1095.8229,75.7435462 C1088.9029,92.4235462 1081.8929,109.083546 1075.1629,125.843546 C1066.7629,145.463546 1058.4529,165.123546 1050.0629,184.753546 C1045.7329,194.763546 1040.8729,204.573546 1034.9629,213.753546 C1046.3629,223.903546 1057.9829,234.553546 1072.4029,240.203546 C1084.5929,244.863546 1099.4429,243.743546 1110.0129,235.763546 C1117.8629,229.843546 1121.9929,220.623546 1125.9429,211.913546 C1131.1629,213.343546 1136.4129,214.703546 1141.5829,216.343546 C1137.4729,230.313546 1129.3529,243.643546 1116.7729,251.453546 C1100.1929,261.753546 1078.4129,261.953546 1060.9129,253.823546 C1047.3329,247.753546 1036.1029,237.733546 1025.3329,227.693546 C1015.5529,240.103546 1003.7229,251.863546 988.522895,257.243546 C972.532895,262.933546 952.782895,258.053546 942.712895,243.993546 C935.072895,233.513546 932.522895,219.083546 937.232895,206.863546 C943.772895,189.733546 962.602895,178.103546 980.892895,180.613546 C996.842895,182.673546 1010.1929,192.643546 1022.1529,202.713546 C1031.6629,186.963546 1037.9029,169.603546 1045.0829,152.743546 C1055.7229,127.063546 1066.2329,101.323546 1077.2429,75.8035462 M965.722895,198.463546 C958.212895,201.403546 952.362895,208.553546 951.612895,216.663546 C951.062895,223.773546 952.982895,231.413546 958.102895,236.583546 C962.982895,241.513546 970.242895,243.383546 977.022895,242.853546 C983.782895,242.293546 990.042895,239.123546 995.402895,235.113546 C1002.3729,229.853546 1008.2729,223.263546 1013.2429,216.113546 C1005.6529,209.623546 997.932895,202.923546 988.572895,199.143546 C981.382895,196.203546 973.012895,195.433546 965.722895,198.463546 M1084.1129,152.053546 C1090.2729,152.423546 1098.5329,149.993546 1102.7029,156.013546 C1105.2729,159.653546 1103.0329,163.953546 1100.2629,166.693546 C1102.0829,168.463546 1104.4729,170.203546 1104.6629,172.963546 C1105.1329,177.093546 1101.8329,180.923546 1097.8329,181.603546 C1093.2929,182.333546 1088.6629,181.903546 1084.1029,181.823546 C1083.8729,171.903546 1084.0129,161.983546 1084.1129,152.053546 M1089.8729,157.343546 C1089.9029,159.753546 1089.9629,162.163546 1090.0829,164.583546 C1092.4429,164.103546 1096.0529,165.213546 1097.2729,162.483546 C1098.0729,160.873546 1097.6029,158.463546 1095.7929,157.783546 C1093.8329,157.363546 1091.8329,157.423546 1089.8729,157.343546 M1089.9229,169.373546 C1089.9029,171.783546 1089.9029,174.213546 1089.9429,176.633546 C1092.0929,176.543546 1094.2929,176.663546 1096.4429,176.203546 C1098.5129,175.223546 1099.1629,172.003546 1097.2029,170.583546 C1095.1529,168.993546 1092.3129,169.633546 1089.9229,169.373546 M1111.4029,152.093546 C1113.3229,152.023546 1115.2529,151.993546 1117.2029,151.973546 C1117.4929,155.933546 1117.4329,159.903546 1117.4829,163.873546 C1120.8229,160.323546 1123.8729,156.503546 1127.3129,153.053546 C1129.1029,151.063546 1132.1129,152.363546 1134.4529,152.193546 C1131.2529,157.333546 1126.7829,161.493546 1122.8329,166.023546 C1126.8129,171.373546 1131.7329,176.013546 1135.2329,181.713546 C1132.9429,181.763546 1130.5329,182.373546 1128.3429,181.593546 C1124.3329,177.593546 1121.2129,172.803546 1117.4329,168.593546 C1117.4329,173.053546 1117.5029,177.513546 1117.2829,181.973546 C1115.2929,181.933546 1113.3329,181.893546 1111.3829,181.823546 C1111.3229,171.913546 1111.2729,162.003546 1111.4029,152.093546 M283.722895,420.543546 C299.382895,418.383546 316.532895,420.523546 329.512895,430.163546 C335.122895,434.203546 339.632895,439.543546 343.702895,445.083546 C336.002895,450.823546 327.972895,456.083546 320.082895,461.543546 C315.482895,455.403546 309.712895,449.523546 302.022895,447.613546 C294.832895,445.843546 286.292895,446.133546 280.452895,451.193546 C273.492895,457.403546 273.972895,469.673546 281.032895,475.633546 C287.032895,480.883546 294.672895,483.633546 301.832895,486.873546 C315.312895,492.613546 329.312895,498.343546 340.062895,508.623546 C357.542895,524.913546 358.172895,555.993546 341.032895,572.733546 C331.662895,581.713546 318.752895,586.013546 306.062895,587.333546 C288.482895,589.293546 269.932895,586.323546 254.842895,576.753546 C244.912895,570.483546 236.632895,561.533546 231.472895,550.953546 C240.292895,546.163546 249.112895,541.383546 257.932895,536.603546 C262.332895,544.543546 268.312895,551.993546 276.652895,556.003546 C285.222895,560.273546 295.292895,560.933546 304.592895,559.063546 C310.292895,557.803546 315.902895,554.783546 319.062895,549.723546 C322.842895,543.343546 321.492895,534.593546 316.282895,529.393546 C311.202895,524.363546 304.492895,521.543546 298.132895,518.523546 C284.172895,511.933546 268.852895,507.083546 257.422895,496.253546 C243.472895,483.353546 240.572895,461.133546 248.492895,444.273546 C254.952895,430.763546 269.232895,422.503546 283.722895,420.543546 M1307.2329,422.493546 C1318.0629,422.413546 1328.9029,422.413546 1339.7429,422.493546 C1339.7329,467.223546 1339.7129,511.953546 1339.7529,556.683546 C1364.3129,556.703546 1388.8829,556.683546 1413.4429,556.693546 C1413.4929,566.093546 1413.5129,575.493546 1413.4329,584.893546 C1378.0329,584.983546 1342.6329,584.973546 1307.2229,584.893546 C1307.2329,530.763546 1307.2329,476.623546 1307.2329,422.493546 M399.782895,430.933546 C440.652895,430.923546 481.532895,430.993546 522.402895,430.903546 C522.542895,439.903546 522.492895,448.893546 522.432895,457.893546 C507.142895,457.993546 491.852895,457.943546 476.562895,457.913546 C476.382895,500.213546 476.502895,542.513546 476.502895,584.813546 C466.262895,585.073546 456.012895,584.913546 445.762895,584.913546 C445.692895,542.593546 445.752895,500.263546 445.732895,457.943546 C430.402895,457.923546 415.082895,457.983546 399.762895,457.913546 C399.712895,448.923546 399.692895,439.923546 399.782895,430.933546 M582.782895,430.933546 C599.822895,430.973546 616.862895,430.903546 633.902895,430.973546 C651.142895,431.543546 669.322895,436.313546 681.822895,448.853546 C692.142895,458.873546 696.842895,473.473546 696.992895,487.623546 C697.372895,501.063546 693.702895,515.083546 684.582895,525.263546 C680.132895,530.433546 674.362895,534.203546 668.402895,537.413546 C678.612895,553.243546 688.962895,568.983546 699.082895,584.873546 C687.452895,584.983546 675.812895,584.983546 664.182895,584.873546 C656.442895,572.483546 648.472895,560.233546 640.662895,547.883546 C639.752895,545.533546 636.992895,546.373546 635.082895,546.363546 C627.872895,546.933546 620.652895,546.573546 613.442895,546.743546 C613.502895,559.463546 613.512895,572.173546 613.432895,584.893546 C603.212895,584.993546 592.982895,584.953546 582.762895,584.913546 C582.722895,533.583546 582.682895,482.263546 582.782895,430.933546 M613.562895,457.913546 C613.392895,478.663546 613.492895,499.413546 613.512895,520.163546 C623.872895,519.953546 634.472895,521.173546 644.602895,518.383546 C650.972895,516.663546 657.182895,513.183546 660.832895,507.523546 C665.772895,499.983546 666.172895,490.453546 664.982895,481.783546 C663.802895,473.633546 658.942895,465.883546 651.382895,462.293546 C639.662895,456.333546 626.202895,458.273546 613.562895,457.913546 M761.232895,430.943546 L864.732895,430.943546 C864.732895,439.923546 864.722895,448.913546 864.742895,457.893546 C840.492895,457.993546 816.252895,457.933546 792.012895,457.923546 C791.942895,473.513546 791.992895,489.103546 791.982895,504.693546 C812.722895,504.703546 833.472895,504.673546 854.212895,504.703546 C854.242895,513.363546 854.242895,522.023546 854.212895,530.683546 C833.472895,530.713546 812.722895,530.683546 791.982895,530.693546 C792.002895,539.873546 791.922895,549.053546 792.032895,558.233546 C817.282895,558.183546 842.522895,558.123546 867.772895,558.273546 C867.692895,567.143546 867.742895,576.013546 867.742895,584.893546 C832.232895,584.973546 796.732895,584.973546 761.222895,584.893546 C761.242895,533.573546 761.222895,482.263546 761.232895,430.943546 M931.782895,430.933546 C966.172895,430.943546 1000.5629,430.963546 1034.9529,430.923546 C1035.0029,439.923546 1034.9829,448.923546 1034.9729,457.923546 C1010.8329,457.953546 986.692895,457.963546 962.562895,457.923546 C962.392895,473.513546 962.482895,489.103546 962.512895,504.693546 L1024.4529,504.693546 C1024.5029,513.353546 1024.5029,522.023546 1024.4529,530.693546 L962.512895,530.693546 C962.452895,539.843546 962.452895,549.003546 962.512895,558.163546 C987.652895,558.213546 1012.7929,558.233546 1037.9329,558.153546 C1038.0329,567.073546 1037.9629,576.003546 1037.9729,584.923546 C1002.5729,584.943546 967.162895,584.973546 931.762895,584.913546 C931.722895,533.583546 931.682895,482.263546 931.782895,430.933546 M1093.0129,430.923546 C1133.9129,430.973546 1174.8229,430.933546 1215.7329,430.943546 C1215.7329,439.923546 1215.7229,448.913546 1215.7429,457.893546 C1200.4129,458.003546 1185.1029,457.923546 1169.7829,457.943546 C1169.6729,500.253546 1169.7529,542.573546 1169.7329,584.893546 C1159.4829,584.983546 1149.2429,584.943546 1138.9929,584.923546 C1138.9529,542.593546 1139.0229,500.263546 1138.9529,457.923546 C1123.6329,457.953546 1108.3129,457.953546 1092.9929,457.923546 C1092.9829,448.923546 1092.9529,439.923546 1093.0129,430.923546 M1478.0129,430.923546 C1488.3229,430.953546 1498.6329,430.953546 1508.9529,430.923546 C1509.0129,482.263546 1508.9829,533.593546 1508.9729,584.923546 C1498.6429,584.953546 1488.3129,584.953546 1477.9929,584.923546 C1477.9829,533.593546 1477.9529,482.253546 1478.0129,430.923546 M1570.0129,430.923546 C1610.9129,430.973546 1651.8229,430.933546 1692.7329,430.943546 C1692.7329,439.923546 1692.7229,448.913546 1692.7429,457.893546 C1677.4129,458.003546 1662.0929,457.923546 1646.7829,457.933546 C1646.6729,500.253546 1646.7529,542.573546 1646.7429,584.893546 C1636.4829,584.993546 1626.2429,584.943546 1615.9929,584.923546 C1615.9529,542.593546 1616.0229,500.263546 1615.9529,457.923546 C1600.6329,457.953546 1585.3129,457.953546 1569.9929,457.923546 C1569.9829,448.923546 1569.9529,439.923546 1570.0129,430.923546 M1753.0129,430.923546 C1787.4729,430.943546 1821.9329,430.983546 1856.4029,430.903546 C1856.5429,439.903546 1856.4929,448.893546 1856.4329,457.893546 C1832.2929,458.003546 1808.1529,457.933546 1784.0129,457.923546 C1783.9429,473.513546 1783.9929,489.103546 1783.9829,504.693546 C1804.6529,504.703546 1825.3129,504.683546 1845.9829,504.693546 L1845.9829,530.693546 C1825.3129,530.703546 1804.6529,530.683546 1783.9829,530.693546 C1784.0029,539.873546 1783.9229,549.053546 1784.0329,558.233546 C1809.1729,558.163546 1834.3129,558.173546 1859.4529,558.233546 C1859.4929,567.113546 1859.5129,576.003546 1859.4329,584.893546 C1823.9529,585.003546 1788.4729,584.933546 1752.9929,584.923546 C1752.9829,533.593546 1752.9529,482.253546 1753.0129,430.923546 M1952.3129,500.073546 C1962.5229,494.153546 1976.8129,495.583546 1984.9029,504.463546 C1982.4729,507.083546 1979.9929,509.653546 1977.4129,512.103546 C1972.8229,508.593546 1966.6129,506.243546 1960.9929,508.653546 C1952.3429,511.853546 1948.8929,523.343546 1953.5229,531.103546 C1957.1429,537.783546 1966.3329,540.503546 1972.9929,536.823546 C1974.5829,536.203546 1976.0029,534.763546 1977.7929,534.813546 C1980.4529,536.883546 1982.5529,539.563546 1984.8029,542.063546 C1975.9329,552.583546 1958.6529,552.983546 1948.4529,544.203546 C1941.3229,538.383546 1937.6629,528.763546 1939.0229,519.683546 C1940.1329,511.583546 1945.1529,504.053546 1952.3129,500.073546 M2016.4229,497.383546 C2023.1529,495.553546 2030.6229,496.503546 2036.6729,500.023546 C2044.1129,504.203546 2049.2229,512.163546 2050.0529,520.643546 C2051.0729,529.673546 2047.1829,539.103546 2039.9829,544.683546 C2030.8429,552.063546 2016.8129,552.313546 2007.4329,545.253546 C1999.4729,539.573546 1995.3229,529.293546 1996.7829,519.673546 C1998.1029,509.223546 2006.1529,499.913546 2016.4229,497.383546 M2019.3329,509.003546 C2013.3429,510.713546 2008.7129,516.433546 2008.4829,522.683546 C2007.8029,531.093546 2015.4829,539.033546 2023.9429,538.433546 C2032.3329,538.323546 2039.3529,529.983546 2038.1429,521.713546 C2037.3729,512.953546 2027.7829,506.263546 2019.3329,509.003546 M0.162895469,497.433546 C12.1228955,497.013546 24.1228955,497.093546 36.0828955,497.393546 C36.2528955,500.933546 36.2528955,504.473546 36.1028955,508.023546 C32.0828955,508.233546 28.0528955,508.213546 24.0328955,508.153546 C23.8128955,521.943546 24.2328955,535.743546 23.8128955,549.533546 C19.9828955,549.753546 16.1528955,549.743546 12.3228955,549.483546 C12.0628955,535.713546 12.4028955,521.943546 12.1428955,508.173546 C8.13289547,508.213546 4.12289547,508.253546 0.122895469,507.963546 C-0.0471045311,504.453546 -0.0471045311,500.933546 0.162895469,497.433546 M51.3028955,497.413546 C55.1528955,497.123546 59.0328955,497.113546 62.8828955,497.423546 C63.0728955,504.103546 62.9328955,510.783546 63.0128955,517.463546 C70.1428955,517.433546 77.2728955,517.423546 84.4028955,517.473546 C84.5528955,510.783546 84.4528955,504.103546 84.5028955,497.423546 C88.3628955,497.133546 92.2328955,497.133546 96.1028955,497.363546 C96.3128955,514.753546 96.3328955,532.163546 96.0928955,549.563546 C92.3028955,549.723546 88.5128955,549.723546 84.7228955,549.603546 C84.2728955,542.583546 84.5328955,535.553546 84.5128955,528.543546 C77.3428955,528.363546 70.1628955,528.443546 62.9928955,528.463546 C62.9128955,535.483546 63.1428955,542.513546 62.8128955,549.533546 C58.9828955,549.743546 55.1528955,549.743546 51.3328955,549.483546 C51.1528955,532.133546 51.2028955,514.773546 51.3028955,497.413546 M116.612895,497.323546 C127.852895,497.113546 139.102895,497.113546 150.342895,497.323546 C150.512895,500.933546 150.532895,504.553546 150.212895,508.173546 C142.872895,508.223546 135.532895,508.113546 128.202895,508.273546 C128.232895,511.323546 128.242895,514.383546 128.232895,517.443546 C134.362895,517.453546 140.502895,517.343546 146.632895,517.603546 C146.742895,521.163546 146.752895,524.733546 146.612895,528.303546 C140.482895,528.543546 134.352895,528.393546 128.222895,528.483546 C128.242895,531.873546 128.232895,535.273546 128.212895,538.663546 C135.552895,538.753546 142.892895,538.593546 150.232895,538.793546 C150.532895,542.383546 150.532895,545.993546 150.232895,549.593546 C139.062895,549.753546 127.892895,549.763546 116.722895,549.583546 C116.252895,532.173546 116.472895,514.743546 116.612895,497.323546 M2064.4429,537.003546 C2069.2129,534.183546 2075.6829,539.123546 2074.6329,544.443546 C2073.8729,549.333546 2067.5629,552.243546 2063.5329,549.143546 C2059.1029,546.363546 2059.8029,539.193546 2064.4429,537.003546 M454.022895,685.743546 C462.362895,680.243546 473.832895,680.053546 482.352895,685.283546 C492.212895,690.983546 497.502895,703.423546 494.742895,714.473546 C493.032895,721.843546 487.982895,728.003546 481.802895,732.183546 C485.012895,737.883546 489.062895,743.073546 491.992895,748.943546 C487.782895,749.633546 483.502895,749.473546 479.262895,749.393546 C476.472895,744.793546 473.742895,740.163546 470.962895,735.563546 C464.482895,735.543546 457.762895,734.203546 452.532895,730.163546 C444.982895,724.623546 440.872895,714.923546 441.902895,705.643546 C442.652895,697.633546 447.282895,690.123546 454.022895,685.743546 M464.332895,694.053546 C458.132895,695.943546 453.482895,702.153546 453.712895,708.693546 C453.702895,716.303546 460.322895,723.373546 468.022895,723.433546 C476.832895,724.073546 484.732895,715.383546 483.382895,706.673546 C482.582895,697.843546 472.832895,691.193546 464.332895,694.053546 M604.142895,683.933546 C604.662895,682.343546 606.052895,681.583546 607.552895,681.153546 C612.102895,690.353546 616.252895,699.753546 620.642895,709.033546 C624.422895,717.503546 628.802895,725.723546 632.122895,734.403546 C628.202895,734.773546 624.262895,734.753546 620.352895,734.543546 C619.092895,732.023546 617.922895,729.483546 616.742895,726.943546 C609.942895,726.943546 603.142895,726.933546 596.342895,726.963546 C595.192895,729.503546 594.022895,732.033546 592.712895,734.503546 C588.872895,734.753546 585.022895,734.743546 581.182895,734.523546 C583.732895,726.383546 588.132895,718.973546 591.492895,711.153546 C595.722895,702.083546 599.902895,692.993546 604.142895,683.933546 M600.872895,716.693546 C604.642895,716.693546 608.402895,716.693546 612.172895,716.663546 C610.372895,712.503546 608.532895,708.363546 606.542895,704.293546 C604.532895,708.363546 602.732895,712.543546 600.872895,716.693546 M1042.8629,681.653546 C1043.6429,681.593546 1045.2129,681.463546 1046.0029,681.393546 C1055.9529,690.983546 1065.8029,700.693546 1075.9529,710.093546 C1076.0729,700.873546 1075.8429,691.643546 1076.0829,682.423546 C1079.9329,682.113546 1083.8029,682.123546 1087.6629,682.423546 C1087.8429,698.523546 1087.6429,714.633546 1087.7729,730.743546 C1087.6429,732.413546 1088.0429,734.393546 1086.6429,735.663546 C1085.4529,735.463546 1084.2629,735.133546 1083.4429,734.243546 C1073.7329,724.863546 1064.5429,714.933546 1054.6229,705.783546 C1054.1429,715.393546 1054.9129,725.043546 1054.1829,734.643546 C1050.4029,734.713546 1046.6429,734.713546 1042.8929,734.533546 C1042.6029,716.913546 1042.6629,699.273546 1042.8629,681.653546 M1179.0029,683.693546 C1187.7329,679.323546 1199.0429,681.643546 1205.9329,688.393546 C1204.0729,691.223546 1202.1729,694.023546 1200.0729,696.673546 C1196.2429,694.643546 1192.4829,691.863546 1188.0029,691.683546 C1185.2729,691.523546 1182.0629,694.283546 1183.5429,697.133546 C1185.7729,701.173546 1190.7229,702.173546 1194.5529,704.153546 C1200.0629,706.553546 1205.3329,710.913546 1206.4829,717.113546 C1208.0229,724.583546 1202.7629,732.233546 1195.6329,734.373546 C1187.2529,736.903546 1177.4029,734.963546 1171.0329,728.813546 C1172.5729,725.993546 1173.7929,722.893546 1176.0729,720.543546 C1180.6229,722.093546 1184.7729,725.793546 1189.9129,724.843546 C1192.5229,724.523546 1194.4829,721.673546 1193.5529,719.133546 C1192.3429,715.403546 1188.2229,714.093546 1185.0429,712.563546 C1179.5529,710.303546 1173.9829,706.613546 1171.9529,700.753546 C1169.6629,694.333546 1172.9329,686.693546 1179.0029,683.693546 M1235.0029,683.693546 C1243.7329,679.323546 1255.0429,681.643546 1261.9329,688.393546 C1260.0729,691.223546 1258.1729,694.023546 1256.0729,696.673546 C1252.2429,694.643546 1248.4829,691.863546 1244.0029,691.683546 C1241.2729,691.523546 1238.0729,694.283546 1239.5429,697.123546 C1241.7729,701.173546 1246.7229,702.173546 1250.5529,704.153546 C1256.0629,706.553546 1261.3329,710.913546 1262.4829,717.113546 C1264.0329,724.583546 1258.7629,732.243546 1251.6229,734.373546 C1243.2429,736.903546 1233.4029,734.963546 1227.0329,728.823546 C1228.5829,726.003546 1229.7729,722.883546 1232.0729,720.553546 C1236.3829,721.973546 1240.1729,725.363546 1244.9729,724.963546 C1247.6029,725.003546 1250.2229,722.653546 1249.7129,719.903546 C1249.0829,715.953546 1244.9129,714.353546 1241.7329,712.873546 C1236.2229,710.633546 1230.5629,707.203546 1228.2129,701.453546 C1225.4529,694.933546 1228.6829,686.793546 1235.0029,683.693546 M1318.3029,695.003546 C1322.6429,687.253546 1331.0829,682.043546 1339.9429,681.593546 C1347.6429,681.033546 1355.3129,684.163546 1360.8529,689.453546 C1358.4529,692.233546 1355.9829,694.953546 1353.2829,697.443546 C1349.9729,695.063546 1346.2029,692.853546 1341.9729,693.193546 C1334.3129,693.313546 1327.7429,700.103546 1327.4929,707.683546 C1326.9629,714.553546 1331.9329,721.273546 1338.5629,722.993546 C1341.9529,723.923546 1345.4929,723.253546 1348.8929,722.663546 C1348.9129,721.113546 1348.9529,719.573546 1349.0029,718.043546 C1347.0029,717.943546 1345.0229,717.853546 1343.0629,717.733546 C1342.9629,714.433546 1342.9629,711.143546 1343.1129,707.853546 C1348.9429,707.593546 1354.7929,707.563546 1360.6329,707.913546 C1360.8029,715.403546 1360.7529,722.903546 1360.6629,730.403546 C1352.6929,734.623546 1343.1829,736.913546 1334.3229,734.403546 C1326.7329,732.403546 1320.1629,726.803546 1317.1029,719.563546 C1313.6329,711.783546 1314.0129,702.383546 1318.3029,695.003546 M1403.3429,682.113546 C1413.1029,679.793546 1423.9029,683.733546 1430.0929,691.603546 C1437.4329,700.613546 1437.9129,714.413546 1431.1929,723.893546 C1426.2529,731.073546 1417.6929,735.513546 1408.9829,735.433546 C1401.0329,735.433546 1393.1329,731.723546 1388.1929,725.493546 C1381.9029,717.763546 1380.4329,706.423546 1384.6429,697.373546 C1387.9629,689.683546 1395.1129,683.803546 1403.3429,682.113546 M1404.3929,694.213546 C1398.0729,696.343546 1393.6029,702.963546 1394.2529,709.653546 C1394.6929,717.463546 1402.1029,724.043546 1409.9329,723.433546 C1418.4929,723.123546 1425.5729,714.323546 1423.7429,705.873546 C1422.4829,697.253546 1412.6629,691.053546 1404.3929,694.213546 M1476.4129,682.383546 C1483.1529,680.553546 1490.6129,681.503546 1496.6629,685.023546 C1503.8329,689.043546 1508.8329,696.553546 1509.9329,704.683546 C1511.3329,713.993546 1507.4429,723.913546 1499.9829,729.683546 C1490.8429,737.063546 1476.8129,737.313546 1467.4229,730.253546 C1459.4729,724.563546 1455.3229,714.283546 1456.7829,704.673546 C1458.1129,694.223546 1466.1529,684.913546 1476.4129,682.383546 M1479.3329,694.003546 C1472.6629,695.873546 1467.7829,702.773546 1468.5129,709.713546 C1469.0029,717.383546 1476.2229,723.963546 1483.9429,723.433546 C1492.3329,723.323546 1499.3629,714.983546 1498.1429,706.703546 C1497.3729,697.953546 1487.7829,691.263546 1479.3329,694.003546 M1609.5929,683.273546 C1616.8729,679.943546 1625.5029,681.523546 1632.2029,685.493546 C1633.4029,686.283546 1634.9829,687.023546 1635.2029,688.663546 C1633.8829,691.583546 1631.8429,694.093546 1629.9729,696.663546 C1626.1329,694.703546 1622.4329,692.003546 1618.0229,691.693546 C1615.4729,691.493546 1612.2629,693.653546 1613.0529,696.493546 C1614.4729,700.413546 1618.9029,701.683546 1622.3629,703.263546 C1628.1429,705.613546 1634.1729,709.493546 1635.9229,715.883546 C1638.2229,723.283546 1633.4029,731.483546 1626.2929,734.043546 C1617.7129,737.143546 1607.3929,735.113546 1600.7229,728.833546 C1602.2729,725.983546 1603.8529,723.163546 1605.5029,720.373546 C1610.1229,722.183546 1614.5829,725.683546 1619.8329,724.833546 C1622.4729,724.463546 1624.2729,721.343546 1623.2229,718.873546 C1621.8929,715.413546 1618.0729,714.073546 1614.9829,712.663546 C1609.2429,710.333546 1603.3829,706.393546 1601.5429,700.163546 C1599.4429,693.543546 1603.2529,685.923546 1609.5929,683.273546 M519.302895,682.413546 C523.232895,682.123546 527.172895,682.133546 531.102895,682.363546 C531.392895,692.493546 531.162895,702.623546 531.212895,712.753546 C531.212895,715.363546 531.542895,718.243546 533.442895,720.243546 C536.702895,724.323546 543.502895,724.543546 547.132895,720.843546 C549.092895,719.043546 549.972895,716.363546 549.972895,713.753546 C550.082895,703.313546 549.822895,692.863546 550.082895,682.433546 C554.002895,682.103546 557.952895,682.103546 561.882895,682.433546 C562.072895,693.203546 561.982895,703.983546 561.962895,714.763546 C561.952895,723.193546 556.202895,731.153546 548.292895,733.993546 C541.932895,736.473546 534.442895,735.693546 528.752895,731.923546 C522.962895,728.273546 519.252895,721.603546 519.252895,714.753546 C519.222895,703.973546 519.182895,693.193546 519.302895,682.413546 M652.862895,682.363546 C656.682895,682.143546 660.522895,682.163546 664.352895,682.313546 C664.612895,696.083546 664.462895,709.863546 664.442895,723.643546 C670.832895,723.763546 677.232895,723.573546 683.622895,723.823546 C683.752895,727.393546 683.752895,730.973546 683.632895,734.553546 C673.382895,734.783546 663.112895,734.783546 652.872895,734.553546 C652.632895,717.163546 652.652895,699.753546 652.862895,682.363546 M706.302895,682.413546 C710.152895,682.123546 714.022895,682.113546 717.882895,682.433546 C718.002895,699.793546 718.132895,717.173546 717.812895,734.533546 C713.982895,734.743546 710.142895,734.743546 706.322895,734.483546 C706.152895,717.123546 706.202895,699.773546 706.302895,682.413546 M740.672895,682.363546 C752.642895,682.133546 764.632895,681.993546 776.592895,682.433546 C776.742895,685.933546 776.742895,689.453546 776.612895,692.963546 C772.572895,693.243546 768.522895,693.203546 764.492895,693.203546 C764.322895,707.003546 764.782895,720.813546 764.242895,734.603546 C760.442895,734.713546 756.652895,734.723546 752.872895,734.563546 C752.572895,720.803546 752.782895,707.033546 752.762895,693.273546 C748.762895,693.173546 744.762895,693.183546 740.782895,693.153546 C740.422895,689.563546 740.422895,685.953546 740.672895,682.363546 M794.352895,682.513546 C798.432895,682.263546 802.642895,681.693546 806.682895,682.593546 C810.552895,687.523546 813.722895,692.973546 817.352895,698.083546 C821.312895,693.143546 824.312895,687.513546 828.282895,682.593546 C832.312895,681.683546 836.522895,682.263546 840.612895,682.513546 C835.962895,691.733546 829.162895,699.673546 823.852895,708.513546 C823.112895,709.743546 823.292895,711.243546 823.202895,712.633546 C823.162895,719.933546 823.382895,727.253546 823.102895,734.553546 C819.322895,734.713546 815.552895,734.713546 811.782895,734.643546 C811.162895,727.323546 811.622895,719.963546 811.512895,712.633546 C811.452895,711.103546 811.492895,709.493546 810.632895,708.183546 C805.472895,699.463546 798.812895,691.633546 794.352895,682.513546 M892.612895,682.323546 C903.852895,682.113546 915.092895,682.113546 926.332895,682.323546 C926.502895,685.893546 926.502895,689.483546 926.332895,693.063546 C918.972895,693.293546 911.612895,693.183546 904.252895,693.163546 C904.232895,696.733546 904.232895,700.313546 904.222895,703.903546 C910.342895,703.993546 916.472895,703.833546 922.602895,704.083546 C922.742895,707.643546 922.742895,711.223546 922.662895,714.793546 C916.512895,715.043546 910.372895,714.923546 904.232895,714.943546 C904.202895,721.473546 904.342895,728.023546 904.102895,734.563546 C900.302895,734.723546 896.502895,734.713546 892.722895,734.603546 C892.252895,717.183546 892.472895,699.743546 892.612895,682.323546 M949.862895,682.363546 C953.682895,682.143546 957.512895,682.163546 961.352895,682.313546 C961.492895,699.733546 961.712895,717.183546 961.242895,734.603546 C957.442895,734.713546 953.652895,734.723546 949.872895,734.563546 C949.632895,717.163546 949.642895,699.763546 949.862895,682.363546 M984.162895,682.433546 C996.122895,682.013546 1008.1129,682.093546 1020.0829,682.393546 C1020.2429,685.933546 1020.2429,689.473546 1020.1029,693.023546 C1016.0729,693.233546 1012.0529,693.213546 1008.0329,693.153546 C1007.8129,706.943546 1008.2329,720.743546 1007.8129,734.533546 C1003.9829,734.743546 1000.1429,734.743546 996.332895,734.483546 C996.052895,720.713546 996.412895,706.943546 996.142895,693.173546 C992.132895,693.213546 988.122895,693.253546 984.132895,692.963546 C983.942895,689.443546 983.952895,685.933546 984.162895,682.433546 M1115.8629,682.373546 C1127.1129,682.103546 1138.3929,682.033546 1149.6429,682.413546 C1149.7429,685.973546 1149.7529,689.543546 1149.5129,693.113546 C1142.1729,693.273546 1134.8229,693.123546 1127.4829,693.223546 C1127.4729,696.293546 1127.4929,699.383546 1127.5529,702.473546 C1133.6429,702.443546 1139.7529,702.343546 1145.8629,702.573546 C1146.0029,706.153546 1146.0129,709.743546 1145.8129,713.333546 C1139.7029,713.533546 1133.6029,713.393546 1127.5129,713.463546 C1127.4729,716.863546 1127.4729,720.273546 1127.5029,723.693546 C1134.8729,723.773546 1142.2629,723.483546 1149.6329,723.903546 C1149.7429,727.423546 1149.7329,730.953546 1149.6229,734.483546 C1138.3829,734.863546 1127.1129,734.743546 1115.8629,734.553546 C1115.6329,717.163546 1115.6429,699.763546 1115.8629,682.373546 M1534.6129,682.323546 C1541.7329,682.183546 1548.8629,682.023546 1555.9929,682.323546 C1567.9829,682.903546 1578.6229,692.813546 1580.1629,704.713546 C1582.2329,717.113546 1573.8929,730.063546 1561.8529,733.523546 C1552.9929,735.673546 1543.7429,734.393546 1534.7229,734.583546 C1534.2529,717.173546 1534.4729,699.733546 1534.6129,682.323546 M1546.2029,693.273546 C1546.2529,703.403546 1546.2329,713.543546 1546.2129,723.673546 C1551.5529,723.623546 1557.6529,724.503546 1562.1029,720.823546 C1569.6129,715.293546 1570.0629,702.763546 1562.9329,696.733546 C1558.4829,692.403546 1551.8729,693.143546 1546.2029,693.273546 M1085.3529,794.063546 C1087.1529,789.993546 1094.0829,792.183546 1092.9629,796.613546 C1090.8129,802.463546 1087.2729,807.713546 1084.5329,813.313546 C1073.5329,834.323546 1062.4829,855.303546 1051.4429,876.293546 C1049.6929,879.643546 1047.8729,882.963546 1046.4029,886.453546 C1053.5729,882.763546 1059.3829,877.103546 1065.5529,872.043546 C1069.0129,868.863546 1074.3729,874.453546 1071.1129,877.793546 C1064.9829,884.273546 1057.6229,889.523546 1050.0729,894.223546 C1051.0129,898.743546 1051.7629,904.283546 1056.1929,906.793546 C1061.0429,908.423546 1065.7129,904.973546 1069.1529,901.883546 C1072.1029,898.833546 1075.4829,895.713546 1076.7529,891.533546 C1079.7029,873.233546 1086.4029,855.553546 1096.1329,839.773546 C1104.2729,826.393546 1113.5329,813.483546 1125.0929,802.823546 C1128.9129,799.553546 1132.9829,796.003546 1138.0829,795.033546 C1141.1429,794.353546 1144.4729,796.743546 1144.6929,799.903546 C1145.2429,805.653546 1142.8629,811.133546 1140.5329,816.243546 C1134.4429,828.623546 1126.3329,839.843546 1118.2829,850.983546 C1107.8829,864.833546 1097.8029,878.983546 1086.1529,891.833546 C1083.6229,895.023546 1084.7229,899.643546 1085.2229,903.383546 C1085.6629,906.073546 1088.1029,908.083546 1090.8929,907.433546 C1096.1729,906.963546 1100.2929,903.123546 1103.6229,899.313546 C1110.4829,890.953546 1113.7329,879.943546 1121.8429,872.553546 C1126.6129,868.073546 1135.6429,870.983546 1136.2829,877.693546 C1137.4729,888.033546 1126.6229,895.143546 1127.0529,905.413546 C1127.8129,907.633546 1130.7129,908.023546 1132.7329,907.533546 C1136.0129,906.473546 1138.5329,903.923546 1140.6529,901.303546 C1146.7629,893.613546 1150.0929,884.213546 1155.2829,875.973546 C1157.7129,872.753546 1163.6529,875.623546 1162.3029,879.573546 C1158.3929,889.943546 1151.6929,898.973546 1147.2229,909.093546 C1157.4229,909.003546 1165.5129,901.473546 1170.6729,893.333546 C1174.5729,886.763546 1177.8929,879.863546 1181.5229,873.143546 C1182.4929,871.443546 1183.7229,869.233546 1186.0229,869.403546 C1188.7529,869.213546 1189.7429,872.093546 1190.9329,874.003546 C1194.3729,873.953546 1198.0829,873.673546 1201.1729,875.523546 C1204.7429,877.493546 1206.8829,881.613546 1206.5229,885.683546 C1206.2629,893.543546 1200.2129,899.453546 1198.5329,906.903546 C1206.3629,907.243546 1212.4229,901.313546 1216.7629,895.493546 C1218.2829,893.763546 1219.3729,890.993546 1221.9829,890.793546 C1225.2529,890.303546 1227.8129,894.633546 1225.7229,897.263546 C1221.6629,903.723546 1216.1629,909.523546 1209.2829,912.983546 C1204.6829,915.193546 1198.8229,916.263546 1194.2729,913.413546 C1190.7829,911.223546 1189.6829,906.563546 1190.9229,902.803546 C1192.9629,896.153546 1198.0829,890.653546 1198.5629,883.493546 C1193.1329,880.133546 1187.2729,884.413546 1184.1729,888.873546 C1179.3729,895.883546 1174.9429,903.173546 1171.1029,910.763546 C1170.1229,912.473546 1169.2529,914.363546 1167.6329,915.573546 C1164.6729,916.643546 1161.9929,912.973546 1159.1529,914.813546 C1154.1029,917.073546 1148.4929,917.553546 1143.0629,916.763546 C1129.0629,943.143546 1115.3129,969.663546 1101.3129,996.033546 C1099.6529,1000.10355 1092.5929,998.083546 1093.5529,993.713546 C1095.4929,988.203546 1098.8529,983.313546 1101.4029,978.073546 C1112.2729,957.403546 1123.0629,936.693546 1134.0329,916.083546 C1129.2129,916.103546 1123.5529,915.373546 1120.6529,911.013546 C1117.1629,905.603546 1119.0629,898.723546 1121.5729,893.323546 C1123.6329,888.213546 1127.7529,883.903546 1128.2229,878.223546 C1122.7229,882.563546 1120.0229,889.263546 1116.4429,895.083546 C1112.3129,902.583546 1106.8229,909.823546 1098.9629,913.673546 C1094.4029,915.843546 1088.8229,916.623546 1084.0929,914.593546 C1080.5229,913.043546 1078.6429,909.443546 1077.1129,906.103546 C1072.4429,910.323546 1067.2429,914.663546 1060.7629,915.413546 C1056.0429,916.133546 1051.0129,914.433546 1047.8929,910.783546 C1043.9529,906.513546 1042.8429,900.623546 1041.6729,895.143546 C1038.1729,901.153546 1035.3129,907.533546 1031.7529,913.503546 C1030.4229,916.363546 1025.7329,916.133546 1024.5329,913.303546 C1024.1329,911.613546 1024.4429,909.883546 1024.5329,908.193546 C1022.4629,908.113546 1020.4129,907.983546 1018.3729,907.853546 C1013.7829,913.433546 1006.4329,917.633546 999.052895,915.683546 C994.042895,914.683546 990.742895,910.373546 988.872895,905.913546 C984.422895,908.263546 979.362895,908.523546 974.472895,907.903546 C970.012895,913.633546 962.482895,917.613546 955.142895,915.653546 C950.592895,914.733546 947.612895,910.873546 945.472895,907.063546 C940.472895,912.493546 933.802895,917.693546 925.972895,916.913546 C920.582895,916.653546 916.312895,911.883546 915.692895,906.693546 C914.682895,899.563546 918.022895,892.833546 921.432895,886.813546 C919.792895,885.603546 918.172895,884.383546 916.572895,883.163546 C911.422895,893.453546 906.002895,904.223546 896.642895,911.353546 C886.112895,919.643546 870.712895,919.283546 859.312895,913.023546 C857.722895,914.173546 856.292895,916.413546 854.062895,915.883546 C850.872895,915.603546 849.542895,911.593546 851.402895,909.193546 C871.142895,871.303546 891.172895,833.563546 910.962895,795.693546 C911.902895,793.453546 914.202895,791.373546 916.772895,792.453546 C919.732895,793.283546 920.072895,796.953546 918.532895,799.203546 C905.362895,824.403546 892.072895,849.543546 878.862895,874.723546 C883.172895,874.113546 888.342895,873.543546 891.662895,877.033546 C895.922895,881.583546 895.112895,888.553546 893.202895,893.973546 C891.502895,899.403546 887.452895,903.523546 884.362895,908.143546 C893.652895,905.293546 899.612895,896.943546 904.252895,888.913546 C907.982895,882.763546 910.492895,875.993546 913.842895,869.643546 C914.822895,867.283546 917.842895,866.073546 920.022895,867.623546 C923.292895,869.983546 920.062895,875.033546 923.012895,877.663546 C925.322895,879.713546 928.582895,880.003546 931.192895,881.563546 C933.002895,882.853546 932.692895,885.483546 931.462895,887.083546 C928.292895,891.933546 924.652895,896.823546 923.902895,902.743546 C923.582895,904.903546 923.822895,907.833546 926.282895,908.653546 C930.212895,909.153546 933.722895,906.683546 936.542895,904.223546 C940.732895,900.273546 944.612895,895.683546 946.402895,890.113546 C949.352895,881.363546 957.462895,873.903546 966.982895,873.673546 C972.382895,873.523546 977.752895,876.843546 979.662895,881.973546 C981.942895,887.903546 980.242895,894.313546 978.762895,900.223546 C981.202895,899.683546 983.922895,899.373546 985.812895,897.543546 C989.032895,894.913546 989.662895,890.583546 991.482895,887.063546 C994.762895,880.183546 1001.3729,874.693546 1009.0729,873.773546 C1014.7329,872.993546 1020.9029,875.993546 1023.1529,881.383546 C1025.8129,887.453546 1024.0329,894.163546 1022.5229,900.273546 C1027.7729,899.993546 1031.7329,896.153546 1033.9629,891.683546 C1051.1229,859.163546 1068.0829,826.523546 1085.3529,794.063546 M1111.1329,831.873546 C1102.2329,845.003546 1093.7529,858.853546 1089.6429,874.313546 C1095.4529,868.373546 1099.9129,861.293546 1105.0429,854.783546 C1112.6729,844.653546 1120.1729,834.393546 1126.8729,823.613546 C1130.5329,817.593546 1134.1629,811.443546 1136.1429,804.633546 C1126.1529,812.003546 1118.3029,821.833546 1111.1329,831.873546 M963.072895,882.893546 C956.572895,886.133546 952.502895,893.483546 952.942895,900.693546 C952.912895,903.513546 954.222895,906.823546 957.212895,907.633546 C960.992895,908.703546 964.392895,906.093546 967.192895,903.893546 C964.382895,900.413546 961.182895,896.603546 961.212895,891.903546 C961.162895,888.623546 966.062895,886.873546 968.132895,889.423546 C969.452895,891.413546 970.282895,893.693546 971.392895,895.813546 C972.022895,892.033546 973.452895,887.833546 971.522895,884.203546 C969.652895,881.443546 965.762895,881.543546 963.072895,882.893546 M1007.0429,882.833546 C999.512895,886.333546 995.262895,895.463546 997.112895,903.503546 C997.662895,905.793546 999.642895,907.663546 1002.0529,907.853546 C1005.5229,908.193546 1008.3829,905.833546 1010.9829,903.863546 C1008.1229,900.393546 1004.9129,896.513546 1004.9929,891.783546 C1004.9729,889.573546 1007.0729,888.483546 1008.9729,888.143546 C1012.8729,888.273546 1013.2529,892.923546 1015.0129,895.513546 C1015.9429,891.923546 1017.1429,887.843546 1015.3429,884.343546 C1013.6629,881.483546 1009.7029,881.533546 1007.0429,882.833546 M878.812895,884.593546 C872.852895,888.723546 868.882895,895.003546 865.242895,901.133546 C863.802895,903.213546 864.122895,907.293546 867.192895,907.613546 C872.282895,907.533546 876.372895,903.873546 879.602895,900.293546 C884.052895,895.523546 887.432895,889.043546 886.132895,882.353546 C883.572895,882.613546 880.922895,883.013546 878.812895,884.593546 M758.432895,870.743546 C760.302895,869.533546 761.752895,871.513546 763.082895,872.603546 C770.002895,879.353546 777.082895,885.953546 783.952895,892.753546 C784.052895,885.513546 783.852895,878.263546 784.102895,871.023546 C787.102895,870.943546 790.102895,870.943546 793.112895,870.993546 C793.272895,884.823546 793.392895,898.683546 793.042895,912.513546 C791.162895,911.923546 789.342895,911.113546 788.012895,909.643546 C781.122895,902.733546 774.442895,895.613546 767.432895,888.823546 C767.462895,896.443546 767.612895,904.083546 767.332895,911.703546 C764.322895,911.683546 761.322895,911.663546 758.332895,911.503546 C758.252895,897.923546 758.012895,884.313546 758.432895,870.743546 M1275.7429,871.183546 C1278.9929,870.943546 1282.2629,870.913546 1285.5429,870.993546 C1288.2629,875.123546 1291.0229,879.243546 1293.9729,883.243546 C1296.8429,879.203546 1299.6329,875.103546 1302.3529,870.973546 C1305.6329,870.893546 1308.9329,870.923546 1312.2029,871.353546 C1308.0229,878.513546 1302.5929,884.913546 1298.6629,892.193546 C1298.1129,898.663546 1298.7629,905.183546 1298.3329,911.673546 C1295.3129,911.683546 1292.3229,911.673546 1289.3329,911.593546 C1288.9029,905.043546 1289.7829,898.413546 1288.8629,891.933546 C1285.0929,884.663546 1279.5929,878.423546 1275.7429,871.183546" id="Street-Lite-Vector" fill="#050604" sketch:type="MSShapeGroup"></path>
    </g>
</svg>