<?xml version="1.0" encoding="UTF-8" standalone="no"?>
<svg width="1129px" height="92px" viewBox="0 0 1129 92" version="1.1" xmlns="http://www.w3.org/2000/svg" xmlns:xlink="http://www.w3.org/1999/xlink" xmlns:sketch="http://www.bohemiancoding.com/sketch/ns">
    <!-- Generator: Sketch 3.3.3 (12072) - http://www.bohemiancoding.com/sketch -->
    <title>Group</title>
    <desc>Created with Sketch.</desc>
    <defs></defs>
    <g id="Page-1" stroke="none" stroke-width="1" fill="none" fill-rule="evenodd" sketch:type="MSPage">
        <g id="Group-+-Tagline" sketch:type="MSLayerGroup" fill="#000000">
            <g id="Group" sketch:type="MSShapeGroup">
                <path d="M154.842076,0.838958937 C163.358521,-0.33505928 172.685279,0.828088398 179.744248,6.06768822 C182.795158,8.26353711 185.247851,11.165971 187.461257,14.1771103 C183.273733,17.2969551 178.906743,20.1559068 174.615891,23.123564 C172.114253,19.7863085 168.976329,16.59037 164.794243,15.5522335 C160.884075,14.5901908 156.23973,14.7478136 153.063737,17.49806 C149.278651,20.8733624 149.539691,27.5424381 153.379161,30.7818587 C156.642167,33.6353752 160.797061,35.1300744 164.690915,36.8911017 C172.021801,40.0109464 179.635481,43.1253558 185.4817,48.7128129 C194.987923,57.566867 195.330539,74.4596846 186.009219,83.5583258 C180.913492,88.4391979 173.892591,90.7763637 166.991334,91.4938193 C157.430727,92.5591321 147.342601,90.9448571 139.136141,85.7433042 C133.735867,82.3353902 129.232919,77.470824 126.426734,71.7203088 C131.223352,69.1168147 136.019971,66.5187559 140.816589,63.920697 C143.20946,68.236301 146.461589,72.2855768 150.997167,74.4651199 C155.657827,76.78598 161.134238,77.1447078 166.191897,76.1283124 C169.291753,75.4434684 172.342663,73.802017 174.06118,71.0517706 C176.116873,67.5840687 175.382697,62.8282079 172.54932,60.0018677 C169.786642,57.2679271 166.137514,55.7351811 162.678728,54.0937297 C155.086801,50.5118871 146.75526,47.8757814 140.539234,41.9893845 C132.952745,34.9778868 131.375626,22.9007179 135.682793,13.7368535 C139.195963,6.39380439 146.961917,1.90427176 154.842076,0.838958937" id="Path-Copy-18"></path>
                <path d="M711.461917,1.89883649 C717.351642,1.85535434 723.246806,1.85535434 729.14197,1.89883649 C729.136531,26.2107971 729.125655,50.5227577 729.147408,74.8347182 C742.503978,74.8455888 755.865987,74.8347182 769.222557,74.8401535 C769.249749,79.9493069 769.260626,85.0584602 769.217119,90.1676136 C749.965385,90.216531 730.713651,90.2110957 711.456478,90.1676136 C711.461917,60.7464996 711.461917,31.3199504 711.461917,1.89883649" id="Path-Copy"></path>
                <path d="M217.959484,6.48620397 C240.185992,6.4807687 262.417938,6.51881559 284.644446,6.46989816 C284.720582,11.3616407 284.693391,16.247948 284.660761,21.1396906 C276.345534,21.1940433 268.030308,21.166867 259.715081,21.1505611 C259.617191,44.1417512 259.682451,67.1329413 259.682451,90.1241314 C254.113588,90.2654484 248.539287,90.1784841 242.964985,90.1784841 C242.926917,67.1764235 242.959547,44.1689276 242.94867,21.166867 C234.61169,21.1559964 226.280149,21.188608 217.948607,21.1505611 C217.921416,16.2642538 217.910539,11.3725113 217.959484,6.48620397" id="Path-Copy-2"></path>
                <path d="M317.48116,6.48620397 C326.748097,6.50794505 336.015033,6.46989816 345.28197,6.50794505 C354.657673,6.81775541 364.54458,9.41037898 371.342509,16.226207 C376.954879,21.672347 379.5109,29.6078405 379.592475,37.2987469 C379.799132,44.6037491 377.803261,52.223997 372.843492,57.7571014 C370.423429,60.5671357 367.285505,62.6162323 364.044253,64.3609539 C369.596801,72.9649855 375.225486,81.5200997 380.729089,90.156743 C374.404296,90.216531 368.074065,90.216531 361.749272,90.156743 C357.539995,83.4224441 353.205635,76.7642389 348.958289,70.0516811 C348.4634,68.7743927 346.962418,69.2309554 345.923694,69.2255201 C342.002649,69.5353304 338.076165,69.3396607 334.15512,69.4320603 C334.18775,76.3457232 334.193188,83.2539507 334.149682,90.1676136 C328.591695,90.2219663 323.02827,90.2002252 317.470284,90.1784841 C317.44853,62.2792456 317.426777,34.3854424 317.48116,6.48620397 Z M334.22038,21.1505611 C334.127928,32.4287454 334.182312,43.7069297 334.193188,54.9851139 C339.827312,54.8709733 345.591955,55.5340762 351.100997,54.017636 C354.565221,53.0827696 357.942432,51.1912958 359.927427,48.1149333 C362.613969,44.01674 362.831502,38.8369282 362.18434,34.1245495 C361.542615,29.6948048 358.89958,25.482471 354.788193,23.5312092 C348.414455,20.2917886 341.094446,21.3462308 334.22038,21.1505611 Z" id="Path-Copy-3"></path>
                <path d="M414.528376,6.49163924 L470.664047,6.49163924 C470.664047,11.3740548 470.658623,16.2619073 470.669471,21.1443229 C457.51691,21.1986928 444.369773,21.1660708 431.222636,21.1606339 C431.18467,29.6368987 431.211789,38.1131636 431.206365,46.5894284 C442.455194,46.5948654 453.709447,46.5785545 464.958277,46.5948654 C464.974548,51.3032974 464.974548,56.0117293 464.958277,60.7201612 C453.709447,60.7364722 442.455194,60.7201612 431.206365,60.7255982 C431.217213,65.7167535 431.173823,70.7079088 431.233484,75.6990642 C444.928418,75.6718792 458.617929,75.6392573 472.312863,75.7208121 C472.269473,80.5434208 472.296592,85.3660295 472.296592,90.1940751 C453.036904,90.237571 433.78264,90.237571 414.522952,90.1940751 C414.5338,62.2914508 414.522952,34.3942635 414.528376,6.49163924" id="Path-Copy-5"></path>
                <path d="M507.27933,6.48620397 C525.981791,6.49163924 544.684253,6.50250978 563.386714,6.4807687 C563.413906,11.3725113 563.403029,16.2642538 563.397591,21.1559964 C550.269431,21.1723022 537.141271,21.1777375 524.01855,21.1559964 C523.926098,29.6295816 523.975043,38.1031668 523.991358,46.576752 L557.676454,46.576752 C557.703646,51.2836954 557.703646,55.9960741 557.676454,60.7084527 L523.991358,60.7084527 C523.958728,65.6817244 523.958728,70.6604312 523.991358,75.6391381 C537.663352,75.6663145 551.335346,75.677185 565.007341,75.6337029 C565.061724,80.4819633 565.023656,85.335659 565.029094,90.1839194 C545.77736,90.1947899 526.520187,90.2110957 507.268453,90.1784841 C507.2467,62.2792456 507.224947,34.3854424 507.27933,6.48620397" id="Path-Copy-6"></path>
                <path d="M594.961734,6.4807687 C617.204556,6.50794505 639.452817,6.48620397 661.701079,6.49163924 C661.701079,11.3725113 661.69564,16.2588186 661.706517,21.1396906 C653.369537,21.1994786 645.043434,21.1559964 636.711893,21.166867 C636.652071,44.1634923 636.695578,67.1655529 636.684701,90.1676136 C631.110399,90.216531 625.541536,90.1947899 619.967235,90.1839194 C619.945481,67.1764235 619.98355,44.1689276 619.945481,21.1559964 C611.61394,21.1723022 603.282398,21.1723022 594.950857,21.1559964 C594.945419,16.2642538 594.929104,11.3725113 594.961734,6.4807687" id="Path-Copy-7"></path>
                <path d="M804.337938,6.4807687 C809.944869,6.49707451 815.551801,6.49707451 821.164171,6.4807687 C821.196801,34.3854424 821.180486,62.2846809 821.175048,90.1839194 C815.557239,90.2002252 809.939431,90.2002252 804.327061,90.1839194 C804.321623,62.2846809 804.305308,34.3800072 804.337938,6.4807687" id="Path-Copy-8"></path>
                <path d="M854.370693,6.4807687 C876.613516,6.50794505 898.861777,6.48620397 921.110038,6.49163924 C921.110038,11.3725113 921.1046,16.2588186 921.115476,21.1396906 C912.778497,21.1994786 904.446955,21.1559964 896.120852,21.1614317 C896.06103,44.1634923 896.104537,67.1655529 896.099099,90.1676136 C890.519359,90.2219663 884.950496,90.1947899 879.376194,90.1839194 C879.354441,67.1764235 879.392509,44.1689276 879.354441,21.1559964 C871.022899,21.1723022 862.691358,21.1723022 854.359816,21.1559964 C854.354378,16.2642538 854.338063,11.3725113 854.370693,6.4807687" id="Path-Copy-9"></path>
                <path d="M953.892369,6.4807687 C972.632899,6.49163924 991.373429,6.51338032 1010.1194,6.46989816 C1010.19553,11.3616407 1010.16834,16.247948 1010.13571,21.1396906 C997.007552,21.1994786 983.879393,21.1614317 970.751233,21.1559964 C970.713164,29.6295816 970.740356,38.1031668 970.734918,46.576752 C981.975973,46.5821872 993.211589,46.5713167 1004.45264,46.576752 L1004.45264,60.7084527 C993.211589,60.713888 981.975973,60.7030175 970.734918,60.7084527 C970.745794,65.6980302 970.702288,70.6876076 970.762109,75.677185 C984.434104,75.6391381 998.106098,75.6445734 1011.77809,75.677185 C1011.79985,80.5037043 1011.81072,85.335659 1011.76722,90.1676136 C992.471974,90.2274015 973.176734,90.1893546 953.881493,90.1839194 C953.876054,62.2846809 953.859739,34.3800072 953.892369,6.4807687" id="Path-Copy-10"></path>
                <path d="M1062.27854,44.0656575 C1067.83109,40.8479779 1075.60249,41.6252214 1080.0021,46.4517408 C1078.68059,47.8757814 1077.33188,49.2726457 1075.92879,50.6042867 C1073.43259,48.6965071 1070.05538,47.4192188 1066.99903,48.7291187 C1062.29486,50.468405 1060.41863,56.7135296 1062.93658,60.9312988 C1064.90526,64.5620588 1069.9031,66.0404521 1073.52504,64.040273 C1074.38973,63.7032862 1075.16198,62.9206074 1076.13544,62.9477838 C1077.58204,64.0728846 1078.72409,65.5295368 1079.94772,66.8883542 C1075.12391,72.6062577 1065.72645,72.8236685 1060.17934,68.0515019 C1056.30181,64.888175 1054.31137,59.6594457 1055.05099,54.724221 C1055.65464,50.3216527 1058.38469,46.2288947 1062.27854,44.0656575" id="Path-Copy-11"></path>
                <path d="M1097.14376,42.60357 C1100.80377,41.6089156 1104.86621,42.1252662 1108.15641,44.0384811 C1112.20253,46.3104238 1114.98153,50.6368983 1115.43291,55.2460069 C1115.98762,60.1540552 1113.8721,65.2795144 1109.9565,68.3123948 C1104.98585,72.3236237 1097.35586,72.4595055 1092.25469,68.6222052 C1087.92577,65.5349721 1085.66886,59.947515 1086.46286,54.7187857 C1087.18072,49.0389291 1091.55858,43.9786931 1097.14376,42.60357 Z M1098.72632,48.9193531 C1095.46875,49.8487842 1092.9508,52.9577584 1092.82572,56.3548019 C1092.45591,60.9258635 1096.63256,65.2414675 1101.2334,64.9153514 C1105.79617,64.8555634 1109.61388,60.3225486 1108.95584,55.8275807 C1108.53709,51.0662846 1103.32172,47.4300893 1098.72632,48.9193531 Z" id="Path-Copy-12"></path>
                <path d="M0.634868746,42.6307463 C7.31873801,42.402465 14.0249614,42.4459471 20.7088306,42.6090052 C20.8038354,44.5330906 20.8038354,46.457176 20.7200077,48.3866967 C18.4734228,48.5008374 16.2212495,48.4899669 13.9746647,48.4573552 C13.8517173,55.9525919 14.0864351,63.4532638 13.8517173,70.9485005 C11.7113143,71.0680765 9.57091135,71.0626412 7.4305084,70.9213242 C7.28520689,63.436958 7.47521656,55.9525919 7.32991505,48.4682258 C5.08891875,48.4899669 2.84792245,48.5117079 0.612514669,48.3540851 C0.517509838,46.4463055 0.517509838,44.5330906 0.634868746,42.6307463" id="Path-Copy-14"></path>
                <path d="M28.4441084,42.6198758 C30.5378704,42.4622529 32.6479475,42.4568177 34.7417095,42.625311 C34.845038,46.2560711 34.7689012,49.8868311 34.812408,53.5175912 C38.6899465,53.5012854 42.5674851,53.4958501 46.4450236,53.5230264 C46.5265987,49.8868311 46.4722153,46.2560711 46.499407,42.625311 C48.5986074,42.4676882 50.7032461,42.4676882 52.8078849,42.5926994 C52.9220901,52.0446331 52.9329668,61.5074374 52.8024465,70.9648063 C50.7413145,71.0517706 48.6801826,71.0517706 46.6190506,70.9865474 C46.3743251,67.1709882 46.5157221,63.3499937 46.5048454,59.5398698 C42.6055535,59.4420349 38.7008232,59.4855171 34.8015313,59.4963876 C34.7580246,63.3119468 34.8831064,67.1329413 34.7036411,70.9485005 C32.6207558,71.0626412 30.5378704,71.0626412 28.4604234,70.9213242 C28.3625332,61.4911316 28.3897249,52.0555037 28.4441084,42.6198758" id="Path-Copy-15"></path>
                <path d="M63.9619263,42.5709583 C70.0746238,42.4568177 76.1927596,42.4568177 82.3054571,42.5709583 C82.397909,44.5330906 82.4087856,46.5006582 82.2347587,48.4682258 C78.2430149,48.4954021 74.2512712,48.4356142 70.2649658,48.5225785 C70.2812808,50.1803357 70.2867192,51.8435281 70.2812808,53.5067206 C73.6149851,53.5121559 76.9541276,53.4523679 80.2878319,53.5936849 C80.3476537,55.5286409 80.353092,57.4690321 80.2769552,59.4094233 C76.943251,59.5398698 73.6095467,59.4583407 70.2758425,59.5072582 C70.2867192,61.3498145 70.2812808,63.1978062 70.2704041,65.0403626 C74.2621479,65.08928 78.2538916,65.0023157 82.2456353,65.1110211 C82.4087856,67.0622828 82.4087856,69.0244151 82.2456353,70.9811121 C76.1710063,71.0680765 70.0963772,71.0735117 64.0217481,70.9756769 C63.7661459,61.5128726 63.8857895,52.0391979 63.9619263,42.5709583" id="Path-Copy-16"></path>
                <path d="M1123.25868,63.5945809 C1125.85277,62.0618349 1129.37138,64.203331 1128.80036,67.0948944 C1128.38704,69.7527412 1124.95545,71.3344047 1122.7638,69.6494711 C1120.35461,68.1384662 1120.73529,64.2413779 1123.25868,63.0510539" id="Path-Copy-17"></path>
            </g>
        </g>
    </g>
</svg>