<?xml version="1.0" encoding="UTF-8" standalone="no"?>
<svg width="1129px" height="169px" viewBox="0 0 1129 169" version="1.1" xmlns="http://www.w3.org/2000/svg" xmlns:xlink="http://www.w3.org/1999/xlink" xmlns:sketch="http://www.bohemiancoding.com/sketch/ns">
    <!-- Generator: Sketch 3.3.3 (12072) - http://www.bohemiancoding.com/sketch -->
    <title>Group + Tagline</title>
    <desc>Created with Sketch.</desc>
    <defs></defs>
    <g id="Page-1" stroke="none" stroke-width="1" fill="none" fill-rule="evenodd" sketch:type="MSPage">
        <g id="Group-+-Tagline" sketch:type="MSLayerGroup" fill="#000000">
            <g id="Group" sketch:type="MSShapeGroup">
                <path d="M154.842076,0.838958937 C163.358521,-0.33505928 172.685279,0.828088398 179.744248,6.06768822 C182.795158,8.26353711 185.247851,11.165971 187.461257,14.1771103 C183.273733,17.2969551 178.906743,20.1559068 174.615891,23.123564 C172.114253,19.7863085 168.976329,16.59037 164.794243,15.5522335 C160.884075,14.5901908 156.23973,14.7478136 153.063737,17.49806 C149.278651,20.8733624 149.539691,27.5424381 153.379161,30.7818587 C156.642167,33.6353752 160.797061,35.1300744 164.690915,36.8911017 C172.021801,40.0109464 179.635481,43.1253558 185.4817,48.7128129 C194.987923,57.566867 195.330539,74.4596846 186.009219,83.5583258 C180.913492,88.4391979 173.892591,90.7763637 166.991334,91.4938193 C157.430727,92.5591321 147.342601,90.9448571 139.136141,85.7433042 C133.735867,82.3353902 129.232919,77.470824 126.426734,71.7203088 C131.223352,69.1168147 136.019971,66.5187559 140.816589,63.920697 C143.20946,68.236301 146.461589,72.2855768 150.997167,74.4651199 C155.657827,76.78598 161.134238,77.1447078 166.191897,76.1283124 C169.291753,75.4434684 172.342663,73.802017 174.06118,71.0517706 C176.116873,67.5840687 175.382697,62.8282079 172.54932,60.0018677 C169.786642,57.2679271 166.137514,55.7351811 162.678728,54.0937297 C155.086801,50.5118871 146.75526,47.8757814 140.539234,41.9893845 C132.952745,34.9778868 131.375626,22.9007179 135.682793,13.7368535 C139.195963,6.39380439 146.961917,1.90427176 154.842076,0.838958937" id="Path-Copy-18"></path>
                <path d="M711.461917,1.89883649 C717.351642,1.85535434 723.246806,1.85535434 729.14197,1.89883649 C729.136531,26.2107971 729.125655,50.5227577 729.147408,74.8347182 C742.503978,74.8455888 755.865987,74.8347182 769.222557,74.8401535 C769.249749,79.9493069 769.260626,85.0584602 769.217119,90.1676136 C749.965385,90.216531 730.713651,90.2110957 711.456478,90.1676136 C711.461917,60.7464996 711.461917,31.3199504 711.461917,1.89883649" id="Path-Copy"></path>
                <path d="M217.959484,6.48620397 C240.185992,6.4807687 262.417938,6.51881559 284.644446,6.46989816 C284.720582,11.3616407 284.693391,16.247948 284.660761,21.1396906 C276.345534,21.1940433 268.030308,21.166867 259.715081,21.1505611 C259.617191,44.1417512 259.682451,67.1329413 259.682451,90.1241314 C254.113588,90.2654484 248.539287,90.1784841 242.964985,90.1784841 C242.926917,67.1764235 242.959547,44.1689276 242.94867,21.166867 C234.61169,21.1559964 226.280149,21.188608 217.948607,21.1505611 C217.921416,16.2642538 217.910539,11.3725113 217.959484,6.48620397" id="Path-Copy-2"></path>
                <path d="M317.48116,6.48620397 C326.748097,6.50794505 336.015033,6.46989816 345.28197,6.50794505 C354.657673,6.81775541 364.54458,9.41037898 371.342509,16.226207 C376.954879,21.672347 379.5109,29.6078405 379.592475,37.2987469 C379.799132,44.6037491 377.803261,52.223997 372.843492,57.7571014 C370.423429,60.5671357 367.285505,62.6162323 364.044253,64.3609539 C369.596801,72.9649855 375.225486,81.5200997 380.729089,90.156743 C374.404296,90.216531 368.074065,90.216531 361.749272,90.156743 C357.539995,83.4224441 353.205635,76.7642389 348.958289,70.0516811 C348.4634,68.7743927 346.962418,69.2309554 345.923694,69.2255201 C342.002649,69.5353304 338.076165,69.3396607 334.15512,69.4320603 C334.18775,76.3457232 334.193188,83.2539507 334.149682,90.1676136 C328.591695,90.2219663 323.02827,90.2002252 317.470284,90.1784841 C317.44853,62.2792456 317.426777,34.3854424 317.48116,6.48620397 Z M334.22038,21.1505611 C334.127928,32.4287454 334.182312,43.7069297 334.193188,54.9851139 C339.827312,54.8709733 345.591955,55.5340762 351.100997,54.017636 C354.565221,53.0827696 357.942432,51.1912958 359.927427,48.1149333 C362.613969,44.01674 362.831502,38.8369282 362.18434,34.1245495 C361.542615,29.6948048 358.89958,25.482471 354.788193,23.5312092 C348.414455,20.2917886 341.094446,21.3462308 334.22038,21.1505611 Z" id="Path-Copy-3"></path>
                <path d="M414.528376,6.49163924 L470.664047,6.49163924 C470.664047,11.3740548 470.658623,16.2619073 470.669471,21.1443229 C457.51691,21.1986928 444.369773,21.1660708 431.222636,21.1606339 C431.18467,29.6368987 431.211789,38.1131636 431.206365,46.5894284 C442.455194,46.5948654 453.709447,46.5785545 464.958277,46.5948654 C464.974548,51.3032974 464.974548,56.0117293 464.958277,60.7201612 C453.709447,60.7364722 442.455194,60.7201612 431.206365,60.7255982 C431.217213,65.7167535 431.173823,70.7079088 431.233484,75.6990642 C444.928418,75.6718792 458.617929,75.6392573 472.312863,75.7208121 C472.269473,80.5434208 472.296592,85.3660295 472.296592,90.1940751 C453.036904,90.237571 433.78264,90.237571 414.522952,90.1940751 C414.5338,62.2914508 414.522952,34.3942635 414.528376,6.49163924" id="Path-Copy-5"></path>
                <path d="M507.27933,6.48620397 C525.981791,6.49163924 544.684253,6.50250978 563.386714,6.4807687 C563.413906,11.3725113 563.403029,16.2642538 563.397591,21.1559964 C550.269431,21.1723022 537.141271,21.1777375 524.01855,21.1559964 C523.926098,29.6295816 523.975043,38.1031668 523.991358,46.576752 L557.676454,46.576752 C557.703646,51.2836954 557.703646,55.9960741 557.676454,60.7084527 L523.991358,60.7084527 C523.958728,65.6817244 523.958728,70.6604312 523.991358,75.6391381 C537.663352,75.6663145 551.335346,75.677185 565.007341,75.6337029 C565.061724,80.4819633 565.023656,85.335659 565.029094,90.1839194 C545.77736,90.1947899 526.520187,90.2110957 507.268453,90.1784841 C507.2467,62.2792456 507.224947,34.3854424 507.27933,6.48620397" id="Path-Copy-6"></path>
                <path d="M594.961734,6.4807687 C617.204556,6.50794505 639.452817,6.48620397 661.701079,6.49163924 C661.701079,11.3725113 661.69564,16.2588186 661.706517,21.1396906 C653.369537,21.1994786 645.043434,21.1559964 636.711893,21.166867 C636.652071,44.1634923 636.695578,67.1655529 636.684701,90.1676136 C631.110399,90.216531 625.541536,90.1947899 619.967235,90.1839194 C619.945481,67.1764235 619.98355,44.1689276 619.945481,21.1559964 C611.61394,21.1723022 603.282398,21.1723022 594.950857,21.1559964 C594.945419,16.2642538 594.929104,11.3725113 594.961734,6.4807687" id="Path-Copy-7"></path>
                <path d="M804.337938,6.4807687 C809.944869,6.49707451 815.551801,6.49707451 821.164171,6.4807687 C821.196801,34.3854424 821.180486,62.2846809 821.175048,90.1839194 C815.557239,90.2002252 809.939431,90.2002252 804.327061,90.1839194 C804.321623,62.2846809 804.305308,34.3800072 804.337938,6.4807687" id="Path-Copy-8"></path>
                <path d="M854.370693,6.4807687 C876.613516,6.50794505 898.861777,6.48620397 921.110038,6.49163924 C921.110038,11.3725113 921.1046,16.2588186 921.115476,21.1396906 C912.778497,21.1994786 904.446955,21.1559964 896.120852,21.1614317 C896.06103,44.1634923 896.104537,67.1655529 896.099099,90.1676136 C890.519359,90.2219663 884.950496,90.1947899 879.376194,90.1839194 C879.354441,67.1764235 879.392509,44.1689276 879.354441,21.1559964 C871.022899,21.1723022 862.691358,21.1723022 854.359816,21.1559964 C854.354378,16.2642538 854.338063,11.3725113 854.370693,6.4807687" id="Path-Copy-9"></path>
                <path d="M953.892369,6.4807687 C972.632899,6.49163924 991.373429,6.51338032 1010.1194,6.46989816 C1010.19553,11.3616407 1010.16834,16.247948 1010.13571,21.1396906 C997.007552,21.1994786 983.879393,21.1614317 970.751233,21.1559964 C970.713164,29.6295816 970.740356,38.1031668 970.734918,46.576752 C981.975973,46.5821872 993.211589,46.5713167 1004.45264,46.576752 L1004.45264,60.7084527 C993.211589,60.713888 981.975973,60.7030175 970.734918,60.7084527 C970.745794,65.6980302 970.702288,70.6876076 970.762109,75.677185 C984.434104,75.6391381 998.106098,75.6445734 1011.77809,75.677185 C1011.79985,80.5037043 1011.81072,85.335659 1011.76722,90.1676136 C992.471974,90.2274015 973.176734,90.1893546 953.881493,90.1839194 C953.876054,62.2846809 953.859739,34.3800072 953.892369,6.4807687" id="Path-Copy-10"></path>
                <path d="M1062.27854,44.0656575 C1067.83109,40.8479779 1075.60249,41.6252214 1080.0021,46.4517408 C1078.68059,47.8757814 1077.33188,49.2726457 1075.92879,50.6042867 C1073.43259,48.6965071 1070.05538,47.4192188 1066.99903,48.7291187 C1062.29486,50.468405 1060.41863,56.7135296 1062.93658,60.9312988 C1064.90526,64.5620588 1069.9031,66.0404521 1073.52504,64.040273 C1074.38973,63.7032862 1075.16198,62.9206074 1076.13544,62.9477838 C1077.58204,64.0728846 1078.72409,65.5295368 1079.94772,66.8883542 C1075.12391,72.6062577 1065.72645,72.8236685 1060.17934,68.0515019 C1056.30181,64.888175 1054.31137,59.6594457 1055.05099,54.724221 C1055.65464,50.3216527 1058.38469,46.2288947 1062.27854,44.0656575" id="Path-Copy-11"></path>
                <path d="M1097.14376,42.60357 C1100.80377,41.6089156 1104.86621,42.1252662 1108.15641,44.0384811 C1112.20253,46.3104238 1114.98153,50.6368983 1115.43291,55.2460069 C1115.98762,60.1540552 1113.8721,65.2795144 1109.9565,68.3123948 C1104.98585,72.3236237 1097.35586,72.4595055 1092.25469,68.6222052 C1087.92577,65.5349721 1085.66886,59.947515 1086.46286,54.7187857 C1087.18072,49.0389291 1091.55858,43.9786931 1097.14376,42.60357 Z M1098.72632,48.9193531 C1095.46875,49.8487842 1092.9508,52.9577584 1092.82572,56.3548019 C1092.45591,60.9258635 1096.63256,65.2414675 1101.2334,64.9153514 C1105.79617,64.8555634 1109.61388,60.3225486 1108.95584,55.8275807 C1108.53709,51.0662846 1103.32172,47.4300893 1098.72632,48.9193531 Z" id="Path-Copy-12"></path>
                <path d="M0.634868746,42.6307463 C7.31873801,42.402465 14.0249614,42.4459471 20.7088306,42.6090052 C20.8038354,44.5330906 20.8038354,46.457176 20.7200077,48.3866967 C18.4734228,48.5008374 16.2212495,48.4899669 13.9746647,48.4573552 C13.8517173,55.9525919 14.0864351,63.4532638 13.8517173,70.9485005 C11.7113143,71.0680765 9.57091135,71.0626412 7.4305084,70.9213242 C7.28520689,63.436958 7.47521656,55.9525919 7.32991505,48.4682258 C5.08891875,48.4899669 2.84792245,48.5117079 0.612514669,48.3540851 C0.517509838,46.4463055 0.517509838,44.5330906 0.634868746,42.6307463" id="Path-Copy-14"></path>
                <path d="M28.4441084,42.6198758 C30.5378704,42.4622529 32.6479475,42.4568177 34.7417095,42.625311 C34.845038,46.2560711 34.7689012,49.8868311 34.812408,53.5175912 C38.6899465,53.5012854 42.5674851,53.4958501 46.4450236,53.5230264 C46.5265987,49.8868311 46.4722153,46.2560711 46.499407,42.625311 C48.5986074,42.4676882 50.7032461,42.4676882 52.8078849,42.5926994 C52.9220901,52.0446331 52.9329668,61.5074374 52.8024465,70.9648063 C50.7413145,71.0517706 48.6801826,71.0517706 46.6190506,70.9865474 C46.3743251,67.1709882 46.5157221,63.3499937 46.5048454,59.5398698 C42.6055535,59.4420349 38.7008232,59.4855171 34.8015313,59.4963876 C34.7580246,63.3119468 34.8831064,67.1329413 34.7036411,70.9485005 C32.6207558,71.0626412 30.5378704,71.0626412 28.4604234,70.9213242 C28.3625332,61.4911316 28.3897249,52.0555037 28.4441084,42.6198758" id="Path-Copy-15"></path>
                <path d="M63.9619263,42.5709583 C70.0746238,42.4568177 76.1927596,42.4568177 82.3054571,42.5709583 C82.397909,44.5330906 82.4087856,46.5006582 82.2347587,48.4682258 C78.2430149,48.4954021 74.2512712,48.4356142 70.2649658,48.5225785 C70.2812808,50.1803357 70.2867192,51.8435281 70.2812808,53.5067206 C73.6149851,53.5121559 76.9541276,53.4523679 80.2878319,53.5936849 C80.3476537,55.5286409 80.353092,57.4690321 80.2769552,59.4094233 C76.943251,59.5398698 73.6095467,59.4583407 70.2758425,59.5072582 C70.2867192,61.3498145 70.2812808,63.1978062 70.2704041,65.0403626 C74.2621479,65.08928 78.2538916,65.0023157 82.2456353,65.1110211 C82.4087856,67.0622828 82.4087856,69.0244151 82.2456353,70.9811121 C76.1710063,71.0680765 70.0963772,71.0735117 64.0217481,70.9756769 C63.7661459,61.5128726 63.8857895,52.0391979 63.9619263,42.5709583" id="Path-Copy-16"></path>
                <path d="M1123.25868,63.5945809 C1125.85277,62.0618349 1129.37138,64.203331 1128.80036,67.0948944 C1128.38704,69.7527412 1124.95545,71.3344047 1122.7638,69.6494711 C1120.35461,68.1384662 1120.73529,64.2413779 1123.25868,63.0510539" id="Path-Copy-17"></path>
            </g>
            <g id="Tagline" transform="translate(127.211268, 116.540541)" stroke="#979797" sketch:type="MSShapeGroup">
                <path d="M9.29592892,3.2218473 C15.6110597,-0.940314859 24.2962576,-1.08409864 30.7476861,2.87373919 C38.213776,7.18725271 42.2194165,16.6013068 40.1295171,24.9634689 C38.8346881,30.5407662 35.010778,35.2023878 30.3312207,38.3656311 C32.7618645,42.6791446 35.8285647,46.6067122 38.0471898,51.0488743 C34.859336,51.5710365 31.6184775,51.4499554 28.4079075,51.3894149 C26.2952918,47.9083338 24.2281087,44.40455 22.1230651,40.9234689 C17.2163447,40.9083338 12.127894,39.8942797 8.16768613,36.8369824 C2.45075119,32.64455 -0.661381611,25.3040095 0.118544613,18.2813068 C0.686452058,12.2196851 4.19233402,6.5364419 9.29592892,3.2218473 Z M17.1342781,9.58996781 C12.4395766,11.0202381 8.91855044,15.7196975 9.09270873,20.6688867 C9.08513663,26.4278056 14.0978663,31.7780759 19.9283828,31.8234813 C26.5994022,32.3078056 32.5813606,25.7315894 31.5591272,19.1402381 C30.9533593,12.4580759 23.5705625,7.42564348 17.1342781,9.58996781 Z" id="Path-Copy-24"></path>
                <path d="M122.63772,2.10378378 C123.031469,0.900540541 124.083991,0.325405405 125.219805,-2.84217094e-14 C128.665111,6.96216216 131.807532,14.0756757 135.131683,21.0983784 C137.993937,27.5081081 141.310516,33.7286486 143.824453,40.2972973 C140.85619,40.5772973 137.872783,40.5621622 134.912093,40.4032432 C133.958008,38.4962162 133.072072,36.5740541 132.178565,34.6518919 C127.029537,34.6518919 121.88051,34.6443243 116.731482,34.667027 C115.860691,36.5891892 114.974755,38.5037838 113.98281,40.372973 C111.075124,40.5621622 108.159866,40.5545946 105.25218,40.3881081 C107.183065,34.2281081 110.514789,28.6205405 113.059014,22.7027027 C116.262012,15.8389189 119.42715,8.96 122.63772,2.10378378 Z M120.396378,26.7891892 C123.25106,26.7891892 126.098169,26.7891892 128.95285,26.7664865 C127.589873,23.6183784 126.196606,20.4854054 124.689759,17.4054054 C123.167767,20.4854054 121.804789,23.6486486 120.396378,26.7891892 Z" id="Path-Copy-2"></path>
                <path d="M455.211075,0.196756757 C455.801698,0.151351351 456.990518,0.052972973 457.588714,-2.84217094e-14 C465.122953,7.2572973 472.58147,14.6054054 480.267151,21.7189189 C480.358016,14.7416216 480.183858,7.75675676 480.365588,0.779459459 C483.280847,0.544864865 486.211249,0.552432432 489.134079,0.779459459 C489.270377,12.9632432 489.118935,25.1545946 489.217372,37.3459459 C489.118935,38.6097297 489.421819,40.1081081 488.361725,41.0691892 C487.460645,40.9178378 486.559566,40.6681081 485.938653,39.9945946 C478.586145,32.8962162 471.627386,25.3816216 464.115863,18.4572973 C463.752403,25.7297297 464.335454,33.0324324 463.782691,40.2972973 C460.920438,40.3502703 458.073328,40.3502703 455.233791,40.2140541 C455.0142,26.88 455.059633,13.5308108 455.211075,0.196756757" id="Path-Copy-4"></path>
                <path d="M558.040999,1.68528866 C564.651442,-1.62173837 573.215486,0.133937307 578.432663,5.24204542 C577.024252,7.38366704 575.585553,9.50258596 573.995412,11.5079914 C571.095298,9.97177515 568.248189,7.86799136 564.855889,7.73177515 C562.788706,7.61069406 560.358062,9.69934271 561.478732,11.8560995 C563.167311,14.9133968 566.9155,15.6701535 569.815614,17.1685319 C573.98784,18.9847481 577.978337,22.2842076 578.849128,26.9760995 C580.015231,32.6290724 576.032307,38.4182616 570.6334,40.0377211 C564.287981,41.9523157 556.829463,40.4842076 552.006036,35.8301535 C553.17214,33.6960995 554.095936,31.3501535 555.822374,29.5717751 C559.267679,30.7447481 562.410101,33.5447481 566.30216,32.8258292 C568.278478,32.583667 569.762609,30.4269103 569.058404,28.5047481 C568.14218,25.6820454 565.022475,24.6906941 562.614547,23.5328562 C558.457465,21.822586 554.239805,19.0301535 552.702669,14.5955589 C550.968659,9.73718055 553.444735,3.95555893 558.040999,1.68528866" id="Path-Copy-5"></path>
                <path d="M600.444755,1.68528866 C607.055198,-1.62173837 615.619242,0.133937307 620.836419,5.24204542 C619.428008,7.38366704 617.989309,9.50258596 616.399168,11.5079914 C613.499054,9.97177515 610.651945,7.86799136 607.259645,7.73177515 C605.192461,7.61069406 602.76939,9.69934271 603.882488,11.8485319 C605.571066,14.9133968 609.319256,15.6701535 612.21937,17.1685319 C616.391596,18.9847481 620.382093,22.2842076 621.252884,26.9760995 C622.426559,32.6290724 618.436063,38.4258292 613.029584,40.0377211 C606.684165,41.9523157 599.233219,40.4842076 594.409792,35.8377211 C595.583467,33.703667 596.484547,31.342586 598.22613,29.5793427 C601.489705,30.6539373 604.359531,33.2193427 607.994138,32.91664 C609.9856,32.9469103 611.96949,31.1685319 611.583313,29.0874508 C611.106271,26.0982616 607.948706,24.8874508 605.540778,23.7674508 C601.368551,22.0723157 597.082743,19.47664 595.3033,15.1252887 C593.2134,10.1912346 595.659188,4.0312346 600.444755,1.68528866" id="Path-Copy-6"></path>
                <path d="M663.724915,10.9536186 C667.011207,5.08875375 673.402058,1.14605105 680.110938,0.805510511 C685.941455,0.381726727 691.749255,2.75037538 695.944198,6.75361862 C694.126894,8.8574024 692.256586,10.9157808 690.212119,12.8001051 C687.705754,10.999024 684.851072,9.32659159 681.648074,9.58388889 C675.847846,9.6746997 670.872977,14.8130781 670.683675,20.5492943 C670.282353,25.7482132 674.045687,30.8336186 679.065989,32.1352402 C681.63293,32.839024 684.313453,32.331997 686.887967,31.8855105 C686.903111,30.7125375 686.9334,29.5471321 686.97126,28.3892943 C685.45684,28.3136186 683.957565,28.2455105 682.473433,28.1546997 C682.397712,25.6574024 682.397712,23.1676727 682.511294,20.6779429 C686.925828,20.4811862 691.355506,20.4584835 695.777612,20.7233483 C695.906337,26.3914565 695.868477,32.0671321 695.800328,37.7428078 C689.765365,40.9363213 682.564298,42.6692943 675.855418,40.7698348 C670.108195,39.2563213 665.133326,35.0184835 662.816264,29.5395646 C660.188745,23.651997 660.476485,16.5384835 663.724915,10.9536186" id="Path-Copy-7"></path>
                <path d="M727.743902,0.499842456 C735.134271,-1.25583322 743.312138,1.7257884 747.999267,7.68146408 C753.557188,14.4998425 753.920649,24.9430857 748.832198,32.1171398 C745.091581,37.5506533 738.609864,40.9106533 732.014566,40.8501127 C725.994747,40.8501127 720.012788,38.0425452 716.272171,33.3279506 C711.509321,27.4782208 710.396222,18.8965992 713.584076,12.0479506 C716.098013,6.2284911 721.512064,1.77876138 727.743902,0.499842456 Z M728.589475,9.71456489 C723.803909,11.3264568 720.41918,16.3361865 720.911367,21.3988892 C721.244539,27.3091595 726.855465,32.2886189 732.784418,31.8269973 C739.266135,31.5924027 744.627181,24.9329433 743.241487,18.5383487 C742.287403,12.0151054 734.851601,7.32321354 728.589475,9.71456489 Z" id="Path-Copy-8"></path>
                <path d="M782.8938,0.689489489 C787.997395,-0.695375375 793.646181,0.0235435435 798.227301,2.68732733 C803.656496,5.72948949 807.442545,11.4127327 808.275476,17.5651652 C809.33557,24.6105706 806.390024,32.1175976 800.741238,36.4840841 C793.820339,42.0689489 783.196684,42.2581381 776.086482,36.9154354 C770.066664,32.6094895 766.924242,24.83003 768.029769,17.5575976 C769.036858,9.64948949 775.124826,2.60408408 782.8938,0.689489489 Z M785.145166,9.5516939 C780.094576,10.966829 776.399392,16.1884507 776.952155,21.4403426 C777.323188,27.2446669 782.790243,32.2241263 788.635904,31.8230453 C794.988895,31.739802 800.312081,25.4284507 799.388285,19.1625047 C798.805233,12.5408831 791.54359,7.47818039 785.145166,9.5516939 Z" id="Path-Copy-10"></path>
                <path d="M884.322757,1.36801571 C889.835245,-1.15198429 896.369966,0.0436913816 901.443273,3.04801571 C902.351925,3.64585354 903.548317,4.20585354 903.714903,5.44693462 C902.715386,7.65666435 901.170677,9.55612381 899.754695,11.5009887 C896.847009,10.0177454 894.045332,7.97450219 890.706036,7.7399076 C888.775151,7.58855625 886.344507,9.22315084 886.942703,11.37234 C888.017941,14.3388265 891.372381,15.2999076 893.992327,16.4955833 C898.369001,18.2739617 902.934977,21.2101779 904.260094,26.0458535 C906.001677,31.6458535 902.351925,37.8512589 896.968162,39.7885562 C890.471301,42.1345022 882.656895,40.598286 877.606304,35.8458535 C878.77998,33.6890968 879.976372,31.5550427 881.225768,29.4436914 C884.724078,30.8134211 888.101234,33.4620698 892.076586,32.8188265 C894.07562,32.5388265 895.438598,30.1777454 894.643528,28.3085562 C893.636439,25.6901779 890.743897,24.6761238 888.404118,23.6090968 C884.057733,21.8458535 879.620483,18.8642319 878.227217,14.1496373 C876.637076,9.1399076 879.522046,3.37342111 884.322757,1.36801571" id="Path-Copy-12"></path>
                <path d="M58.3667356,0.928918919 C61.3425706,0.709459459 64.3259777,0.717027027 67.3018127,0.891081081 C67.5214036,8.55702703 67.3472453,16.222973 67.3851058,23.8889189 C67.3851058,25.8640541 67.6349851,28.0435135 69.0736839,29.557027 C71.5421883,32.6445946 76.6912158,32.8110811 79.4398878,30.0110811 C80.9240193,28.6489189 81.590364,26.6208108 81.590364,24.6456757 C81.6736571,16.7451351 81.4767825,8.83702703 81.6736571,0.944054054 C84.64192,0.694324324 87.6328992,0.694324324 90.6087342,0.944054054 C90.7526041,9.09432432 90.6844552,17.2521622 90.669311,25.41 C90.6617389,31.7894595 86.3077818,37.8132432 80.3182513,39.9624324 C75.5023962,41.8391892 69.8308938,41.2489189 65.5223694,38.3959459 C61.1381239,35.6337838 58.3288751,30.5862162 58.3288751,25.4024324 C58.3061588,17.2445946 58.2758704,9.08675676 58.3667356,0.928918919" id="Path-Copy-13"></path>
                <path d="M159.895303,0.880848947 C162.787845,0.71436246 165.695531,0.729497595 168.595645,0.843011109 C168.79252,11.2635516 168.678938,21.6916598 168.663794,32.1197679 C173.502366,32.2105787 178.348509,32.0667949 183.187081,32.2559841 C183.285518,34.9576057 183.285518,37.6667949 183.194653,40.3759841 C175.433251,40.5500381 167.656705,40.5500381 159.902875,40.3759841 C159.721145,27.2159841 159.736289,14.0408489 159.895303,0.880848947" id="Path-Copy-14"></path>
                <path d="M199.97275,0.92230893 C202.888008,0.702849471 205.81841,0.695281903 208.741241,0.937444066 C208.832106,14.0747414 208.930543,27.2271738 208.688236,40.3644711 C205.788122,40.52339 202.880436,40.52339 199.987894,40.3266333 C199.859168,27.189336 199.897029,14.0596062 199.97275,0.92230893" id="Path-Copy-15"></path>
                <path d="M225.781539,0.920917839 C234.845342,0.746863785 243.924289,0.640917839 252.98052,0.973890812 C253.094101,3.62253946 253.094101,6.28632324 252.995664,8.94253946 C249.936536,9.15443135 246.869836,9.12416108 243.81828,9.12416108 C243.689554,19.5674043 244.03787,30.0182151 243.628977,40.4538908 C240.751579,40.5371341 237.881754,40.5447016 235.0195,40.4236205 C234.792337,30.0106476 234.951351,19.590107 234.936207,9.17713405 C231.907367,9.10145838 228.878528,9.10902595 225.864832,9.08632324 C225.592237,6.36956649 225.592237,3.6376746 225.781539,0.920917839" id="Path-Copy-16"></path>
                <path d="M266.537894,1.06957254 C269.627311,0.88038335 272.815164,0.449031998 275.874292,1.13011308 C278.804695,4.86092389 281.20505,8.98524821 283.953722,12.8522752 C286.952274,9.11389686 289.223903,4.85335632 292.230027,1.13011308 C295.281583,0.441464431 298.469437,0.88038335 301.566425,1.06957254 C298.045399,8.04686984 292.896372,14.0555185 288.875587,20.7452482 C288.315252,21.676059 288.451549,22.8111942 288.3834,23.8630861 C288.353112,29.3874104 288.519698,34.9268698 288.307679,40.4511942 C285.445426,40.5722752 282.590744,40.5722752 279.736063,40.5193023 C279.266593,34.9798428 279.614909,29.4101131 279.531616,23.8630861 C279.486184,22.7052482 279.516472,21.4868698 278.865272,20.4955185 C274.958068,13.8965996 269.91505,7.97119416 266.537894,1.06957254" id="Path-Copy-17"></path>
                <path d="M340.877391,0.875945946 C349.38843,0.717027027 357.89947,0.717027027 366.41051,0.875945946 C366.539235,3.57756757 366.539235,6.29432432 366.41051,9.00351351 C360.837444,9.17756757 355.264379,9.09432432 349.691314,9.07918919 C349.67617,11.7808108 349.67617,14.49 349.668598,17.2067568 C354.302723,17.2748649 358.94442,17.1537838 363.586117,17.342973 C363.692126,20.037027 363.692126,22.7462162 363.631549,25.4478378 C358.974708,25.637027 354.325439,25.5462162 349.67617,25.5613514 C349.653454,30.502973 349.759463,35.4597297 349.577733,40.4089189 C346.700335,40.53 343.822937,40.5224324 340.960684,40.4391892 C340.604795,27.2564865 340.771381,14.0586486 340.877391,0.875945946" id="Path-Copy-18"></path>
                <path d="M384.789475,0.880848947 C387.682017,0.71436246 390.582131,0.729497595 393.489817,0.843011109 C393.595827,14.0257138 393.762413,27.2311192 393.406524,40.4138219 C390.529126,40.4970652 387.659301,40.5046327 384.797047,40.3835516 C384.615317,27.2159841 384.622889,14.0484165 384.789475,0.880848947" id="Path-Copy-19"></path>
                <path d="M410.533004,0.976373311 C419.589234,0.658535473 428.668181,0.719076013 437.731984,0.94610304 C437.853138,3.62502196 437.853138,6.30394088 437.747128,8.99042736 C434.695572,9.14934628 431.651588,9.13421115 428.607605,9.08880574 C428.441018,19.5244814 428.759047,29.9677247 428.441018,40.4034003 C425.540904,40.5623193 422.633218,40.5623193 419.748248,40.3655625 C419.53623,29.945022 419.808825,19.5244814 419.604379,9.10394088 C416.567967,9.13421115 413.531555,9.16448142 410.510287,8.94502196 C410.366417,6.28123818 410.37399,3.62502196 410.533004,0.976373311" id="Path-Copy-20"></path>
                <path d="M536.065837,0.956449295 C536.141558,3.65050335 536.14913,6.35212497 535.967399,9.05374659 C530.409478,9.17482767 524.843985,9.06131416 519.286065,9.13698984 C519.278492,11.4602331 519.293637,13.7986115 519.339069,16.1369898 C523.950478,16.1142871 528.57703,16.0386115 533.203583,16.2126655 C533.309592,18.9218547 533.317164,21.6386115 533.165723,24.3553682 C528.53917,24.5067196 523.920189,24.4007736 519.308781,24.4537466 C519.278492,27.0267196 519.278492,29.6072601 519.301209,32.1953682 C524.881846,32.2559088 530.477627,32.0364493 536.058264,32.3542871 C536.141558,35.0180709 536.133985,37.6894223 536.050692,40.3607736 C527.539653,40.6483412 519.005897,40.5575304 510.487285,40.4137466 C510.313127,27.2537466 510.320699,14.086179 510.487285,0.926179025 C519.005897,0.721854701 527.547225,0.668881728 536.065837,0.956449295 Z" id="Path-Copy-21"></path>
                <path d="M827.006163,0.885510511 C832.397498,0.779564565 837.796405,0.658483483 843.195312,0.885510511 C852.274259,1.32442943 860.330972,8.82388889 861.497076,17.8292943 C863.0645,27.2130781 856.749369,37.0130781 847.632562,39.6314565 C840.923682,41.2584835 833.91949,40.2898348 827.089457,40.4336186 C826.733568,27.2584835 826.900154,14.0606456 827.006163,0.885510511 Z M835.959759,9.17832459 C835.997619,16.8442705 835.982475,24.517784 835.967331,32.18373 C840.010832,32.1458922 844.629812,32.8118381 847.999396,30.0269732 C853.686043,25.8421084 854.026787,16.3599462 848.627881,11.796703 C845.258296,8.51994621 840.253139,9.07994621 835.959759,9.17832459 Z" id="Path-Copy-22"></path>
            </g>
        </g>
    </g>
</svg>