<?xml version="1.0" encoding="UTF-8" standalone="no"?>
<svg width="907px" height="53px" viewBox="0 0 907 53" version="1.1" xmlns="http://www.w3.org/2000/svg" xmlns:xlink="http://www.w3.org/1999/xlink" xmlns:sketch="http://www.bohemiancoding.com/sketch/ns">
    <!-- Generator: Sketch 3.3.3 (12072) - http://www.bohemiancoding.com/sketch -->
    <title>Tagline</title>
    <desc>Created with Sketch.</desc>
    <defs></defs>
    <g id="Page-1" stroke="none" stroke-width="1" fill="none" fill-rule="evenodd" sketch:type="MSPage">
        <g id="Group-+-Tagline" sketch:type="MSLayerGroup" transform="translate(-126.000000, -116.000000)" stroke="#979797" fill="#000000">
            <g id="Tagline" transform="translate(127.211268, 116.540541)" sketch:type="MSShapeGroup">
                <path d="M9.29592892,3.2218473 C15.6110597,-0.940314859 24.2962576,-1.08409864 30.7476861,2.87373919 C38.213776,7.18725271 42.2194165,16.6013068 40.1295171,24.9634689 C38.8346881,30.5407662 35.010778,35.2023878 30.3312207,38.3656311 C32.7618645,42.6791446 35.8285647,46.6067122 38.0471898,51.0488743 C34.859336,51.5710365 31.6184775,51.4499554 28.4079075,51.3894149 C26.2952918,47.9083338 24.2281087,44.40455 22.1230651,40.9234689 C17.2163447,40.9083338 12.127894,39.8942797 8.16768613,36.8369824 C2.45075119,32.64455 -0.661381611,25.3040095 0.118544613,18.2813068 C0.686452058,12.2196851 4.19233402,6.5364419 9.29592892,3.2218473 Z M17.1342781,9.58996781 C12.4395766,11.0202381 8.91855044,15.7196975 9.09270873,20.6688867 C9.08513663,26.4278056 14.0978663,31.7780759 19.9283828,31.8234813 C26.5994022,32.3078056 32.5813606,25.7315894 31.5591272,19.1402381 C30.9533593,12.4580759 23.5705625,7.42564348 17.1342781,9.58996781 Z" id="Path-Copy-24"></path>
                <path d="M122.63772,2.10378378 C123.031469,0.900540541 124.083991,0.325405405 125.219805,-2.84217094e-14 C128.665111,6.96216216 131.807532,14.0756757 135.131683,21.0983784 C137.993937,27.5081081 141.310516,33.7286486 143.824453,40.2972973 C140.85619,40.5772973 137.872783,40.5621622 134.912093,40.4032432 C133.958008,38.4962162 133.072072,36.5740541 132.178565,34.6518919 C127.029537,34.6518919 121.88051,34.6443243 116.731482,34.667027 C115.860691,36.5891892 114.974755,38.5037838 113.98281,40.372973 C111.075124,40.5621622 108.159866,40.5545946 105.25218,40.3881081 C107.183065,34.2281081 110.514789,28.6205405 113.059014,22.7027027 C116.262012,15.8389189 119.42715,8.96 122.63772,2.10378378 Z M120.396378,26.7891892 C123.25106,26.7891892 126.098169,26.7891892 128.95285,26.7664865 C127.589873,23.6183784 126.196606,20.4854054 124.689759,17.4054054 C123.167767,20.4854054 121.804789,23.6486486 120.396378,26.7891892 Z" id="Path-Copy-2"></path>
                <path d="M455.211075,0.196756757 C455.801698,0.151351351 456.990518,0.052972973 457.588714,-2.84217094e-14 C465.122953,7.2572973 472.58147,14.6054054 480.267151,21.7189189 C480.358016,14.7416216 480.183858,7.75675676 480.365588,0.779459459 C483.280847,0.544864865 486.211249,0.552432432 489.134079,0.779459459 C489.270377,12.9632432 489.118935,25.1545946 489.217372,37.3459459 C489.118935,38.6097297 489.421819,40.1081081 488.361725,41.0691892 C487.460645,40.9178378 486.559566,40.6681081 485.938653,39.9945946 C478.586145,32.8962162 471.627386,25.3816216 464.115863,18.4572973 C463.752403,25.7297297 464.335454,33.0324324 463.782691,40.2972973 C460.920438,40.3502703 458.073328,40.3502703 455.233791,40.2140541 C455.0142,26.88 455.059633,13.5308108 455.211075,0.196756757" id="Path-Copy-4"></path>
                <path d="M558.040999,1.68528866 C564.651442,-1.62173837 573.215486,0.133937307 578.432663,5.24204542 C577.024252,7.38366704 575.585553,9.50258596 573.995412,11.5079914 C571.095298,9.97177515 568.248189,7.86799136 564.855889,7.73177515 C562.788706,7.61069406 560.358062,9.69934271 561.478732,11.8560995 C563.167311,14.9133968 566.9155,15.6701535 569.815614,17.1685319 C573.98784,18.9847481 577.978337,22.2842076 578.849128,26.9760995 C580.015231,32.6290724 576.032307,38.4182616 570.6334,40.0377211 C564.287981,41.9523157 556.829463,40.4842076 552.006036,35.8301535 C553.17214,33.6960995 554.095936,31.3501535 555.822374,29.5717751 C559.267679,30.7447481 562.410101,33.5447481 566.30216,32.8258292 C568.278478,32.583667 569.762609,30.4269103 569.058404,28.5047481 C568.14218,25.6820454 565.022475,24.6906941 562.614547,23.5328562 C558.457465,21.822586 554.239805,19.0301535 552.702669,14.5955589 C550.968659,9.73718055 553.444735,3.95555893 558.040999,1.68528866" id="Path-Copy-5"></path>
                <path d="M600.444755,1.68528866 C607.055198,-1.62173837 615.619242,0.133937307 620.836419,5.24204542 C619.428008,7.38366704 617.989309,9.50258596 616.399168,11.5079914 C613.499054,9.97177515 610.651945,7.86799136 607.259645,7.73177515 C605.192461,7.61069406 602.76939,9.69934271 603.882488,11.8485319 C605.571066,14.9133968 609.319256,15.6701535 612.21937,17.1685319 C616.391596,18.9847481 620.382093,22.2842076 621.252884,26.9760995 C622.426559,32.6290724 618.436063,38.4258292 613.029584,40.0377211 C606.684165,41.9523157 599.233219,40.4842076 594.409792,35.8377211 C595.583467,33.703667 596.484547,31.342586 598.22613,29.5793427 C601.489705,30.6539373 604.359531,33.2193427 607.994138,32.91664 C609.9856,32.9469103 611.96949,31.1685319 611.583313,29.0874508 C611.106271,26.0982616 607.948706,24.8874508 605.540778,23.7674508 C601.368551,22.0723157 597.082743,19.47664 595.3033,15.1252887 C593.2134,10.1912346 595.659188,4.0312346 600.444755,1.68528866" id="Path-Copy-6"></path>
                <path d="M663.724915,10.9536186 C667.011207,5.08875375 673.402058,1.14605105 680.110938,0.805510511 C685.941455,0.381726727 691.749255,2.75037538 695.944198,6.75361862 C694.126894,8.8574024 692.256586,10.9157808 690.212119,12.8001051 C687.705754,10.999024 684.851072,9.32659159 681.648074,9.58388889 C675.847846,9.6746997 670.872977,14.8130781 670.683675,20.5492943 C670.282353,25.7482132 674.045687,30.8336186 679.065989,32.1352402 C681.63293,32.839024 684.313453,32.331997 686.887967,31.8855105 C686.903111,30.7125375 686.9334,29.5471321 686.97126,28.3892943 C685.45684,28.3136186 683.957565,28.2455105 682.473433,28.1546997 C682.397712,25.6574024 682.397712,23.1676727 682.511294,20.6779429 C686.925828,20.4811862 691.355506,20.4584835 695.777612,20.7233483 C695.906337,26.3914565 695.868477,32.0671321 695.800328,37.7428078 C689.765365,40.9363213 682.564298,42.6692943 675.855418,40.7698348 C670.108195,39.2563213 665.133326,35.0184835 662.816264,29.5395646 C660.188745,23.651997 660.476485,16.5384835 663.724915,10.9536186" id="Path-Copy-7"></path>
                <path d="M727.743902,0.499842456 C735.134271,-1.25583322 743.312138,1.7257884 747.999267,7.68146408 C753.557188,14.4998425 753.920649,24.9430857 748.832198,32.1171398 C745.091581,37.5506533 738.609864,40.9106533 732.014566,40.8501127 C725.994747,40.8501127 720.012788,38.0425452 716.272171,33.3279506 C711.509321,27.4782208 710.396222,18.8965992 713.584076,12.0479506 C716.098013,6.2284911 721.512064,1.77876138 727.743902,0.499842456 Z M728.589475,9.71456489 C723.803909,11.3264568 720.41918,16.3361865 720.911367,21.3988892 C721.244539,27.3091595 726.855465,32.2886189 732.784418,31.8269973 C739.266135,31.5924027 744.627181,24.9329433 743.241487,18.5383487 C742.287403,12.0151054 734.851601,7.32321354 728.589475,9.71456489 Z" id="Path-Copy-8"></path>
                <path d="M782.8938,0.689489489 C787.997395,-0.695375375 793.646181,0.0235435435 798.227301,2.68732733 C803.656496,5.72948949 807.442545,11.4127327 808.275476,17.5651652 C809.33557,24.6105706 806.390024,32.1175976 800.741238,36.4840841 C793.820339,42.0689489 783.196684,42.2581381 776.086482,36.9154354 C770.066664,32.6094895 766.924242,24.83003 768.029769,17.5575976 C769.036858,9.64948949 775.124826,2.60408408 782.8938,0.689489489 Z M785.145166,9.5516939 C780.094576,10.966829 776.399392,16.1884507 776.952155,21.4403426 C777.323188,27.2446669 782.790243,32.2241263 788.635904,31.8230453 C794.988895,31.739802 800.312081,25.4284507 799.388285,19.1625047 C798.805233,12.5408831 791.54359,7.47818039 785.145166,9.5516939 Z" id="Path-Copy-10"></path>
                <path d="M884.322757,1.36801571 C889.835245,-1.15198429 896.369966,0.0436913816 901.443273,3.04801571 C902.351925,3.64585354 903.548317,4.20585354 903.714903,5.44693462 C902.715386,7.65666435 901.170677,9.55612381 899.754695,11.5009887 C896.847009,10.0177454 894.045332,7.97450219 890.706036,7.7399076 C888.775151,7.58855625 886.344507,9.22315084 886.942703,11.37234 C888.017941,14.3388265 891.372381,15.2999076 893.992327,16.4955833 C898.369001,18.2739617 902.934977,21.2101779 904.260094,26.0458535 C906.001677,31.6458535 902.351925,37.8512589 896.968162,39.7885562 C890.471301,42.1345022 882.656895,40.598286 877.606304,35.8458535 C878.77998,33.6890968 879.976372,31.5550427 881.225768,29.4436914 C884.724078,30.8134211 888.101234,33.4620698 892.076586,32.8188265 C894.07562,32.5388265 895.438598,30.1777454 894.643528,28.3085562 C893.636439,25.6901779 890.743897,24.6761238 888.404118,23.6090968 C884.057733,21.8458535 879.620483,18.8642319 878.227217,14.1496373 C876.637076,9.1399076 879.522046,3.37342111 884.322757,1.36801571" id="Path-Copy-12"></path>
                <path d="M58.3667356,0.928918919 C61.3425706,0.709459459 64.3259777,0.717027027 67.3018127,0.891081081 C67.5214036,8.55702703 67.3472453,16.222973 67.3851058,23.8889189 C67.3851058,25.8640541 67.6349851,28.0435135 69.0736839,29.557027 C71.5421883,32.6445946 76.6912158,32.8110811 79.4398878,30.0110811 C80.9240193,28.6489189 81.590364,26.6208108 81.590364,24.6456757 C81.6736571,16.7451351 81.4767825,8.83702703 81.6736571,0.944054054 C84.64192,0.694324324 87.6328992,0.694324324 90.6087342,0.944054054 C90.7526041,9.09432432 90.6844552,17.2521622 90.669311,25.41 C90.6617389,31.7894595 86.3077818,37.8132432 80.3182513,39.9624324 C75.5023962,41.8391892 69.8308938,41.2489189 65.5223694,38.3959459 C61.1381239,35.6337838 58.3288751,30.5862162 58.3288751,25.4024324 C58.3061588,17.2445946 58.2758704,9.08675676 58.3667356,0.928918919" id="Path-Copy-13"></path>
                <path d="M159.895303,0.880848947 C162.787845,0.71436246 165.695531,0.729497595 168.595645,0.843011109 C168.79252,11.2635516 168.678938,21.6916598 168.663794,32.1197679 C173.502366,32.2105787 178.348509,32.0667949 183.187081,32.2559841 C183.285518,34.9576057 183.285518,37.6667949 183.194653,40.3759841 C175.433251,40.5500381 167.656705,40.5500381 159.902875,40.3759841 C159.721145,27.2159841 159.736289,14.0408489 159.895303,0.880848947" id="Path-Copy-14"></path>
                <path d="M199.97275,0.92230893 C202.888008,0.702849471 205.81841,0.695281903 208.741241,0.937444066 C208.832106,14.0747414 208.930543,27.2271738 208.688236,40.3644711 C205.788122,40.52339 202.880436,40.52339 199.987894,40.3266333 C199.859168,27.189336 199.897029,14.0596062 199.97275,0.92230893" id="Path-Copy-15"></path>
                <path d="M225.781539,0.920917839 C234.845342,0.746863785 243.924289,0.640917839 252.98052,0.973890812 C253.094101,3.62253946 253.094101,6.28632324 252.995664,8.94253946 C249.936536,9.15443135 246.869836,9.12416108 243.81828,9.12416108 C243.689554,19.5674043 244.03787,30.0182151 243.628977,40.4538908 C240.751579,40.5371341 237.881754,40.5447016 235.0195,40.4236205 C234.792337,30.0106476 234.951351,19.590107 234.936207,9.17713405 C231.907367,9.10145838 228.878528,9.10902595 225.864832,9.08632324 C225.592237,6.36956649 225.592237,3.6376746 225.781539,0.920917839" id="Path-Copy-16"></path>
                <path d="M266.537894,1.06957254 C269.627311,0.88038335 272.815164,0.449031998 275.874292,1.13011308 C278.804695,4.86092389 281.20505,8.98524821 283.953722,12.8522752 C286.952274,9.11389686 289.223903,4.85335632 292.230027,1.13011308 C295.281583,0.441464431 298.469437,0.88038335 301.566425,1.06957254 C298.045399,8.04686984 292.896372,14.0555185 288.875587,20.7452482 C288.315252,21.676059 288.451549,22.8111942 288.3834,23.8630861 C288.353112,29.3874104 288.519698,34.9268698 288.307679,40.4511942 C285.445426,40.5722752 282.590744,40.5722752 279.736063,40.5193023 C279.266593,34.9798428 279.614909,29.4101131 279.531616,23.8630861 C279.486184,22.7052482 279.516472,21.4868698 278.865272,20.4955185 C274.958068,13.8965996 269.91505,7.97119416 266.537894,1.06957254" id="Path-Copy-17"></path>
                <path d="M340.877391,0.875945946 C349.38843,0.717027027 357.89947,0.717027027 366.41051,0.875945946 C366.539235,3.57756757 366.539235,6.29432432 366.41051,9.00351351 C360.837444,9.17756757 355.264379,9.09432432 349.691314,9.07918919 C349.67617,11.7808108 349.67617,14.49 349.668598,17.2067568 C354.302723,17.2748649 358.94442,17.1537838 363.586117,17.342973 C363.692126,20.037027 363.692126,22.7462162 363.631549,25.4478378 C358.974708,25.637027 354.325439,25.5462162 349.67617,25.5613514 C349.653454,30.502973 349.759463,35.4597297 349.577733,40.4089189 C346.700335,40.53 343.822937,40.5224324 340.960684,40.4391892 C340.604795,27.2564865 340.771381,14.0586486 340.877391,0.875945946" id="Path-Copy-18"></path>
                <path d="M384.789475,0.880848947 C387.682017,0.71436246 390.582131,0.729497595 393.489817,0.843011109 C393.595827,14.0257138 393.762413,27.2311192 393.406524,40.4138219 C390.529126,40.4970652 387.659301,40.5046327 384.797047,40.3835516 C384.615317,27.2159841 384.622889,14.0484165 384.789475,0.880848947" id="Path-Copy-19"></path>
                <path d="M410.533004,0.976373311 C419.589234,0.658535473 428.668181,0.719076013 437.731984,0.94610304 C437.853138,3.62502196 437.853138,6.30394088 437.747128,8.99042736 C434.695572,9.14934628 431.651588,9.13421115 428.607605,9.08880574 C428.441018,19.5244814 428.759047,29.9677247 428.441018,40.4034003 C425.540904,40.5623193 422.633218,40.5623193 419.748248,40.3655625 C419.53623,29.945022 419.808825,19.5244814 419.604379,9.10394088 C416.567967,9.13421115 413.531555,9.16448142 410.510287,8.94502196 C410.366417,6.28123818 410.37399,3.62502196 410.533004,0.976373311" id="Path-Copy-20"></path>
                <path d="M536.065837,0.956449295 C536.141558,3.65050335 536.14913,6.35212497 535.967399,9.05374659 C530.409478,9.17482767 524.843985,9.06131416 519.286065,9.13698984 C519.278492,11.4602331 519.293637,13.7986115 519.339069,16.1369898 C523.950478,16.1142871 528.57703,16.0386115 533.203583,16.2126655 C533.309592,18.9218547 533.317164,21.6386115 533.165723,24.3553682 C528.53917,24.5067196 523.920189,24.4007736 519.308781,24.4537466 C519.278492,27.0267196 519.278492,29.6072601 519.301209,32.1953682 C524.881846,32.2559088 530.477627,32.0364493 536.058264,32.3542871 C536.141558,35.0180709 536.133985,37.6894223 536.050692,40.3607736 C527.539653,40.6483412 519.005897,40.5575304 510.487285,40.4137466 C510.313127,27.2537466 510.320699,14.086179 510.487285,0.926179025 C519.005897,0.721854701 527.547225,0.668881728 536.065837,0.956449295 Z" id="Path-Copy-21"></path>
                <path d="M827.006163,0.885510511 C832.397498,0.779564565 837.796405,0.658483483 843.195312,0.885510511 C852.274259,1.32442943 860.330972,8.82388889 861.497076,17.8292943 C863.0645,27.2130781 856.749369,37.0130781 847.632562,39.6314565 C840.923682,41.2584835 833.91949,40.2898348 827.089457,40.4336186 C826.733568,27.2584835 826.900154,14.0606456 827.006163,0.885510511 Z M835.959759,9.17832459 C835.997619,16.8442705 835.982475,24.517784 835.967331,32.18373 C840.010832,32.1458922 844.629812,32.8118381 847.999396,30.0269732 C853.686043,25.8421084 854.026787,16.3599462 848.627881,11.796703 C845.258296,8.51994621 840.253139,9.07994621 835.959759,9.17832459 Z" id="Path-Copy-22"></path>
            </g>
        </g>
    </g>
</svg>